<svg width="40" height="40" viewBox="0 0 40 40" fill="none" xmlns="http://www.w3.org/2000/svg">
<g clip-path="url(#clip0_202_3637)">
<mask id="mask0_202_3637" style="mask-type:alpha" maskUnits="userSpaceOnUse" x="17" y="17" width="18" height="14">
<path d="M22.8114 17.6719L34.9998 19.1429V30.911H17.978L22.8114 17.6719Z" fill="#D9D9D9"/>
</mask>
<g mask="url(#mask0_202_3637)">
<path d="M26.232 27.9115H19.2609C18.9765 27.9115 18.7037 27.7986 18.5026 27.5974C18.3015 27.3963 18.1885 27.1235 18.1885 26.8391V21.4768C18.1885 21.1923 18.3015 20.9195 18.5026 20.7184C18.7037 20.5173 18.9765 20.4043 19.2609 20.4043H26.232C26.5164 20.4043 26.7892 20.5173 26.9903 20.7184C27.1914 20.9195 27.3044 21.1923 27.3044 21.4768V26.8391C27.3044 27.1235 27.1914 27.3963 26.9903 27.5974C26.7892 27.7986 26.5164 27.9115 26.232 27.9115ZM28.3769 22.5492V25.7666L30.7604 27.356C30.8412 27.4099 30.9351 27.4409 31.0322 27.4455C31.1292 27.4502 31.2256 27.4285 31.3113 27.3826C31.3969 27.3368 31.4684 27.2685 31.5183 27.1851C31.5681 27.1018 31.5944 27.0065 31.5943 26.9093V21.4065C31.5943 21.3094 31.5679 21.2142 31.5181 21.1309C31.4682 21.0476 31.3966 20.9794 31.311 20.9336C31.2254 20.8878 31.129 20.8661 31.032 20.8708C30.9351 20.8755 30.8412 20.9065 30.7604 20.9604L28.3769 22.5492Z" fill="white"/>
</g>
</g>
<g clip-path="url(#clip1_202_3637)">
<mask id="mask1_202_3637" style="mask-type:alpha" maskUnits="userSpaceOnUse" x="6" y="12" width="15" height="17">
<path d="M6 12H20.6251L15.0713 27.7359L6 28.6615V12Z" fill="#D9D9D9"/>
</mask>
<g mask="url(#mask1_202_3637)">
<path d="M14.7473 15.8887C14.2289 15.8887 13.7754 16.3422 13.7754 16.8606C13.7754 17.3789 14.2289 17.8325 14.7473 17.8325C15.2656 17.8325 15.7192 17.3789 15.7192 16.8606C15.7192 16.3422 15.2656 15.8887 14.7473 15.8887ZM18.311 13.2969H9.23974C8.13823 13.2969 7.2959 14.1392 7.2959 15.2407V24.312C7.2959 25.4135 8.13823 26.2558 9.23974 26.2558H18.311C19.4125 26.2558 20.2548 25.4135 20.2548 24.312V15.2407C20.2548 14.1392 19.4125 13.2969 18.311 13.2969ZM18.9589 21.0074L17.7278 19.7763C16.9503 19.0636 15.7192 19.0636 15.0065 19.7763L14.4233 20.3595L12.5443 18.4805C11.7667 17.7677 10.5356 17.7677 9.82289 18.4805L8.59179 19.7115V15.2407C8.59179 14.8519 8.85097 14.5928 9.23974 14.5928H18.311C18.6998 14.5928 18.9589 14.8519 18.9589 15.2407V21.0074Z" fill="white"/>
</g>
</g>
<path d="M20.7851 18.3406L18.0082 26.2715H17.0752L19.8521 18.3406H20.7851Z" fill="white"/>
<defs>
<clipPath id="clip0_202_3637">
<rect width="15.5507" height="15.5507" fill="white" transform="translate(19.4492 17.4629)"/>
</clipPath>
<clipPath id="clip1_202_3637">
<rect width="15.5507" height="15.5507" fill="white" transform="translate(6 12)"/>
</clipPath>
</defs>
</svg>
