<svg width="14" height="14" viewBox="0 0 14 14" fill="none" xmlns="http://www.w3.org/2000/svg">
<path d="M5.79803 8.20427C4.46175 6.86796 4.16003 5.53166 4.09196 4.99626C4.07294 4.84823 4.12388 4.69977 4.22979 4.5946L5.31116 3.51368C5.47024 3.3547 5.49847 3.10694 5.37923 2.91625L3.65747 0.242671C3.52556 0.0315193 3.25472 -0.0446875 3.03206 0.0667015L0.268026 1.36849C0.0879717 1.45715 -0.0179341 1.64846 0.00250914 1.84812C0.147337 3.22402 0.747164 6.6063 4.07096 9.93041C7.39475 13.2545 10.7765 13.8541 12.1531 13.999C12.3527 14.0194 12.544 13.9135 12.6327 13.7334L13.9344 10.9693C14.0454 10.7472 13.9697 10.477 13.7594 10.3449L11.0859 8.62355C10.8953 8.50419 10.6476 8.53222 10.4885 8.69114L9.40761 9.77255C9.30245 9.87845 9.15399 9.9294 9.00596 9.91038C8.47058 9.84231 7.1343 9.54058 5.79803 8.20427Z" fill="#CFCFCF"/>
<path d="M11.1038 7.48315C10.8372 7.48315 10.621 7.267 10.621 7.00038C10.6188 5.00162 8.99905 3.38186 7.00034 3.3796C6.73372 3.3796 6.51758 3.16346 6.51758 2.89683C6.51758 2.63021 6.73372 2.41406 7.00034 2.41406C9.53207 2.41686 11.5837 4.46858 11.5865 7.00038C11.5865 7.267 11.3704 7.48315 11.1038 7.48315Z" fill="#CFCFCF"/>
<path d="M13.5176 7.48293C13.251 7.48293 13.0348 7.26679 13.0348 7.00016C13.0311 3.66888 10.3315 0.969264 7.00034 0.96554C6.73372 0.96554 6.51758 0.749396 6.51758 0.48277C6.51758 0.216143 6.73372 0 7.00034 0C10.8646 0.00425703 13.9961 3.13584 14.0003 7.00016C14.0003 7.1282 13.9495 7.251 13.8589 7.34153C13.7684 7.43207 13.6456 7.48293 13.5176 7.48293Z" fill="#CFCFCF"/>
</svg>
