<svg width="41" height="40" viewBox="0 0 41 40" fill="none" xmlns="http://www.w3.org/2000/svg">
<path d="M28.8158 28.0884L27.4421 16.2454C27.375 15.1609 26.6016 14.3208 25.6696 14.3208H24.1236V13.6423C24.1236 12.4766 23.6982 11.3792 22.926 10.5525C22.1462 9.71758 21.1072 9.25781 19.9999 9.25781C17.7264 9.25781 15.8766 11.2249 15.8766 13.6423V14.3208H14.3301C13.3986 14.3208 12.6251 15.1609 12.5581 16.2454L11.1844 28.0884C11.1101 29.2898 11.9248 30.3125 12.9564 30.3125H27.0433C28.0754 30.3125 28.8901 29.2898 28.8158 28.0884ZM16.736 13.6423C16.736 11.6984 18.1999 10.1172 19.9999 10.1172C20.8665 10.1172 21.6825 10.4798 22.2978 11.139C22.9209 11.8059 23.2642 12.6953 23.2642 13.6423V14.3208H16.736V13.6423ZM16.3063 17.287C15.8482 17.287 15.477 16.9157 15.477 16.4577C15.477 15.9996 15.8482 15.6284 16.3063 15.6284C16.7643 15.6284 17.1356 15.9996 17.1356 16.4577C17.1356 16.9157 16.7643 17.287 16.3063 17.287ZM23.6939 17.2874C23.2358 17.2874 22.8646 16.9157 22.8646 16.4577C22.8646 16.0005 23.2346 15.6296 23.6917 15.6284H23.696C24.1532 15.6296 24.5232 16.0005 24.5232 16.4577C24.5232 16.9157 24.152 17.2874 23.6939 17.2874Z" fill="white"/>
</svg>
