<svg width="41" height="40" viewBox="0 0 41 40" fill="none" xmlns="http://www.w3.org/2000/svg">
<path d="M17.3501 6.47834V6.95703H20.3419H23.3337V6.47834V5.99965H20.3419H17.3501V6.47834Z" fill="white"/>
<path d="M15.627 7.92753C15.5731 7.98138 15.5552 9.7645 15.5552 15.5866V23.1738H16.9314H18.3076V20.8103V18.4468H20.4019H22.4962V20.8103V23.1738H23.8126H25.129V15.5866C25.129 9.7645 25.111 7.98138 25.0572 7.92753C24.9555 7.8258 15.7287 7.8258 15.627 7.92753ZM18.4154 9.90213L18.3974 10.3389H17.8589H17.3203L17.3024 9.90213L17.2844 9.4713H17.8589H18.4333L18.4154 9.90213ZM20.9285 9.84827C20.9404 10.0577 20.9165 10.2312 20.8746 10.2851C20.7849 10.3928 19.9232 10.4048 19.8155 10.297C19.7377 10.2193 19.7138 9.57901 19.7856 9.50721C19.8095 9.48327 20.0728 9.47729 20.372 9.48327L20.9105 9.50122L20.9285 9.84827ZM23.3818 9.90213L23.3638 10.3389H22.8253H22.2868L22.2688 9.90213L22.2509 9.4713H22.8253H23.3997L23.3818 9.90213ZM18.4154 12.0862L18.4333 12.523H17.8589H17.2904V12.1101C17.2904 11.8348 17.3144 11.6852 17.3682 11.6613C17.4041 11.6493 17.6554 11.6374 17.9187 11.6434L18.3974 11.6553L18.4154 12.0862ZM20.8746 11.7092C20.9165 11.763 20.9404 11.9366 20.9285 12.146L20.9105 12.493H20.3421H19.7736L19.7557 12.146C19.7318 11.6673 19.7796 11.6254 20.3421 11.6254C20.6712 11.6254 20.8268 11.6493 20.8746 11.7092ZM23.298 11.6613C23.3698 11.6912 23.3937 11.787 23.3937 12.1101V12.523H22.8253H22.2568V12.1161C22.2568 11.8887 22.2748 11.6852 22.2987 11.6673C22.3466 11.6134 23.1723 11.6134 23.298 11.6613ZM18.4154 14.3061L18.4333 14.7429L17.8768 14.7249L17.3203 14.707L17.3024 14.3539C17.2725 13.8274 17.2665 13.8334 17.8708 13.8513L18.3974 13.8693L18.4154 14.3061ZM20.9105 14.2881V14.707H20.3421H19.7736L19.7557 14.3539C19.7258 13.8214 19.7198 13.8334 20.3541 13.8513L20.9105 13.8693V14.2881ZM23.3638 14.2881V14.707L22.8133 14.7249L22.2568 14.7429V14.33C22.2568 14.1026 22.2748 13.8992 22.2987 13.8753C22.3227 13.8513 22.574 13.8453 22.8552 13.8513L23.3638 13.8693V14.2881ZM18.4273 16.5021V16.9568L17.8768 16.9389L17.3203 16.9209L17.3024 16.5679C17.2725 16.0473 17.2665 16.0533 17.8888 16.0533H18.4273V16.5021ZM20.9105 16.5021V16.9209H20.3421H19.7736L19.7557 16.5679C19.7258 16.0354 19.7198 16.0473 20.3541 16.0653L20.9105 16.0832V16.5021ZM23.3638 16.5021V16.9209L22.8133 16.9389L22.2568 16.9568V16.5021V16.0473L22.8133 16.0653L23.3638 16.0832V16.5021Z" fill="white"/>
<path d="M11.0796 12.6546C11.0258 12.7085 11.0078 13.3487 11.0078 15.1677V17.609H11.2053C11.319 17.609 11.6181 17.6629 11.8754 17.7287C12.1327 17.7945 12.3481 17.8484 12.3601 17.8484C12.3721 17.8484 12.384 17.7347 12.396 17.5911L12.414 17.3398L12.8508 17.3218L13.2816 17.3039V17.8544V18.3989L13.6286 18.7759C14.221 19.4221 14.5382 20.2418 14.5382 21.1214C14.5382 21.6959 14.4185 22.1746 14.1492 22.7131C14.0355 22.9405 13.9398 23.1319 13.9398 23.1499C13.9398 23.1619 14.1014 23.1738 14.2988 23.1738H14.6578V17.8783V12.5828H12.9046C11.6181 12.5828 11.1335 12.6007 11.0796 12.6546ZM13.2696 15.4071L13.2517 15.9635H12.8328H12.414L12.396 15.4071L12.3781 14.8566H12.8328H13.2876L13.2696 15.4071Z" fill="white"/>
<path d="M26.0264 17.8783V23.1738H26.3854C26.5828 23.1738 26.7444 23.1619 26.7444 23.1499C26.7444 23.1319 26.6487 22.9405 26.535 22.7131C25.8648 21.3847 26.0623 19.8589 27.0496 18.7818L27.4026 18.3989V17.8544V17.3039L27.8394 17.3218L28.2702 17.3398L28.2882 17.5911C28.3001 17.7347 28.3121 17.8484 28.3241 17.8484C28.3361 17.8484 28.5515 17.7945 28.8088 17.7287C29.0661 17.6629 29.3652 17.609 29.4789 17.609H29.6764V15.1677C29.6764 13.3487 29.6584 12.7085 29.6046 12.6546C29.5507 12.6007 29.0661 12.5828 27.7796 12.5828H26.0264V17.8783ZM28.2882 15.4071L28.2702 15.9635H27.8514H27.4325L27.4146 15.4071L27.3966 14.8566H27.8514H28.3061L28.2882 15.4071Z" fill="white"/>
<path d="M10.3495 18.6014C8.49458 19.098 7.83039 21.4256 9.13483 22.8737C10.4752 24.3696 12.9883 23.7772 13.5507 21.8325C13.7123 21.2701 13.6585 20.564 13.4071 20.0195C13.1857 19.5348 12.713 19.0322 12.2762 18.8108C11.6958 18.5116 10.9718 18.4338 10.3495 18.6014Z" fill="white"/>
<path d="M28.9762 18.5966C28.5214 18.7222 28.2043 18.8957 27.8632 19.2129C27.3067 19.7335 27.0435 20.3438 27.0435 21.1037C27.0435 23.1262 29.1437 24.3468 30.9508 23.3655C31.8363 22.8868 32.3749 21.738 32.2014 20.6968C31.9381 19.165 30.4541 18.2016 28.9762 18.5966Z" fill="white"/>
<path d="M10.2596 24.3099C9.15865 24.4834 8.11749 25.0399 7.32167 25.8776C6.67544 26.5597 6.2147 27.4154 6.04117 28.277C5.98134 28.5882 5.98134 28.642 6.07708 28.7437C6.1788 28.8514 6.31642 28.8574 11.0674 28.8574C14.7833 28.8574 15.968 28.8395 16.0219 28.7856C16.2971 28.5104 15.6748 26.9187 14.9628 26.069C14.3225 25.3031 13.3352 24.6808 12.3479 24.4295C11.7974 24.2859 10.7802 24.2321 10.2596 24.3099Z" fill="white"/>
<path d="M28.8688 24.3158C27.672 24.4894 26.4873 25.1476 25.7214 26.069C25.0093 26.9187 24.387 28.5104 24.6623 28.7856C24.7161 28.8395 25.9009 28.8574 29.6167 28.8574C34.3677 28.8574 34.5054 28.8514 34.6071 28.7437C34.7028 28.642 34.7028 28.5882 34.643 28.277C34.3498 26.8469 33.3026 25.4946 31.9623 24.8185C30.993 24.3338 29.9398 24.1603 28.8688 24.3158Z" fill="white"/>
<path d="M19.7679 24.4588C19.2653 24.5665 18.9422 24.746 18.5353 25.135C17.2189 26.3915 17.5899 28.5696 19.2593 29.3594C19.6303 29.533 19.6961 29.5449 20.3423 29.5449C20.9886 29.5449 21.0544 29.533 21.4254 29.3594C23.0948 28.5636 23.4718 26.3915 22.1494 25.135C21.7305 24.7341 21.4194 24.5665 20.8868 24.4528C20.4081 24.3511 20.2466 24.3571 19.7679 24.4588Z" fill="white"/>
<path d="M19.2351 30.2581C17.8768 30.5692 16.6561 31.4488 15.9561 32.6096C15.4893 33.3935 15.1961 34.4107 15.3757 34.6321C15.4415 34.7099 16.0398 34.7219 20.3421 34.7219C25.859 34.7219 25.4102 34.7637 25.3504 34.2432C25.2546 33.4174 24.6982 32.3882 23.9562 31.6463C23.3758 31.0659 22.7415 30.6709 21.9576 30.4077C21.4371 30.2281 21.3174 30.2102 20.4917 30.1982C19.8813 30.1803 19.4804 30.2042 19.2351 30.2581Z" fill="white"/>
</svg>
