<svg width="40" height="40" viewBox="0 0 40 40" fill="none" xmlns="http://www.w3.org/2000/svg">
<path d="M9.875 26.6875H7.4375V29.3125H9.875V26.6875Z" fill="white"/>
<path d="M18.8125 25.233L20.875 25.2519V22.875H18.8125V25.233Z" fill="white"/>
<path d="M15.8125 25.2048L17.9375 25.2249V22.4545C17.9422 22.3343 17.9925 22.2204 18.0782 22.136C18.1639 22.0516 18.2785 22.0029 18.3988 22H21.3125C21.4302 22.0039 21.5418 22.0535 21.6235 22.1384C21.7052 22.2233 21.7506 22.3367 21.75 22.4545V25.26L23.75 25.2787V19.75H15.8125V25.2048Z" fill="white"/>
<path d="M9.875 10.6875H7.4375V13.3125H9.875V10.6875Z" fill="white"/>
<path d="M10.75 10.2196V13.7808C10.75 14.0224 10.5384 14.1875 10.2968 14.1875H9.0625V25.8125H10.2968C10.5384 25.8125 10.75 25.9776 10.75 26.2192V29.7804C10.75 30.0221 10.5384 30.1875 10.2968 30.1875H9.0625V31.8646C9.0625 32.6572 9.73831 33.3125 10.5312 33.3125H29.133C29.5144 33.3094 29.879 33.1553 30.1469 32.8839C30.4148 32.6125 30.5643 32.2459 30.5625 31.8646V8.13544C30.5643 7.75406 30.4148 7.38753 30.1469 7.11614C29.879 6.84474 29.5144 6.69061 29.133 6.6875H10.5312C9.73831 6.6875 9.0625 7.34281 9.0625 8.13544V9.8125H10.2968C10.5384 9.8125 10.75 9.97787 10.75 10.2196ZM12.4375 10.625C12.4375 10.509 12.4836 10.3977 12.5656 10.3156C12.6477 10.2336 12.759 10.1875 12.875 10.1875H26.8125C26.9285 10.1875 27.0398 10.2336 27.1219 10.3156C27.2039 10.3977 27.25 10.509 27.25 10.625V29.4375C27.25 29.5535 27.2039 29.6648 27.1219 29.7469C27.0398 29.8289 26.9285 29.875 26.8125 29.875H12.875C12.759 29.875 12.6477 29.8289 12.5656 29.7469C12.4836 29.6648 12.4375 29.5535 12.4375 29.4375V10.625Z" fill="white"/>
<path d="M15.23 18.8744H24.4365L19.8392 14.8828L15.23 18.8744Z" fill="white"/>
<path d="M26.375 11.0625H13.3125V28.9375H26.375V11.0625ZM26.0175 19.4533C25.9869 19.5382 25.9315 19.6119 25.8584 19.6649C25.7853 19.7178 25.6979 19.7475 25.6077 19.75H24.625V25.7202C24.627 25.8408 24.5824 25.9575 24.5006 26.0459C24.4221 26.131 24.3133 26.1818 24.1978 26.1875H24.1938L15.3652 26.0907C15.249 26.086 15.1392 26.0361 15.0593 25.9515C14.9794 25.867 14.9357 25.7546 14.9375 25.6383V19.75H14.0562C13.966 19.7476 13.8786 19.7179 13.8055 19.665C13.7324 19.6121 13.6769 19.5384 13.6464 19.4534C13.6152 19.3679 13.6103 19.2751 13.6323 19.1868C13.6543 19.0985 13.7022 19.0188 13.7699 18.9579L19.553 13.9506C19.6328 13.8819 19.7347 13.8442 19.84 13.8446C19.9452 13.8449 20.0469 13.8833 20.1262 13.9525L25.8944 18.9637C25.9618 19.0234 26.0097 19.1021 26.0317 19.1895C26.0537 19.2768 26.0487 19.3688 26.0175 19.4533Z" fill="white"/>
</svg>
