<svg width="40" height="40" viewBox="0 0 40 40" fill="none" xmlns="http://www.w3.org/2000/svg">
<path d="M28 13H12C11.4696 13 10.9609 13.2107 10.5858 13.5858C10.2107 13.9609 10 14.4696 10 15V25C10 25.5304 10.2107 26.0391 10.5858 26.4142C10.9609 26.7893 11.4696 27 12 27H28C28.5304 27 29.0391 26.7893 29.4142 26.4142C29.7893 26.0391 30 25.5304 30 25V15C30 14.4696 29.7893 13.9609 29.4142 13.5858C29.0391 13.2107 28.5304 13 28 13ZM16 16C16.3956 16 16.7822 16.1173 17.1111 16.3371C17.44 16.5568 17.6964 16.8692 17.8478 17.2346C17.9991 17.6001 18.0387 18.0022 17.9616 18.3902C17.8844 18.7781 17.6939 19.1345 17.4142 19.4142C17.1345 19.6939 16.7781 19.8844 16.3902 19.9616C16.0022 20.0387 15.6001 19.9991 15.2346 19.8478C14.8692 19.6964 14.5568 19.44 14.3371 19.1111C14.1173 18.7822 14 18.3956 14 18C14 17.4696 14.2107 16.9609 14.5858 16.5858C14.9609 16.2107 15.4696 16 16 16ZM13 24C13 23.4696 13.2107 22.9609 13.5858 22.5858C13.9609 22.2107 14.4696 22 15 22H17C17.5304 22 18.0391 22.2107 18.4142 22.5858C18.7893 22.9609 19 23.4696 19 24H13ZM24 22.25H22C21.8011 22.25 21.6103 22.171 21.4697 22.0303C21.329 21.8897 21.25 21.6989 21.25 21.5C21.25 21.3011 21.329 21.1103 21.4697 20.9697C21.6103 20.829 21.8011 20.75 22 20.75H24C24.1989 20.75 24.3897 20.829 24.5303 20.9697C24.671 21.1103 24.75 21.3011 24.75 21.5C24.75 21.6989 24.671 21.8897 24.5303 22.0303C24.3897 22.171 24.1989 22.25 24 22.25ZM26 19.25H22C21.8011 19.25 21.6103 19.171 21.4697 19.0303C21.329 18.8897 21.25 18.6989 21.25 18.5C21.25 18.3011 21.329 18.1103 21.4697 17.9697C21.6103 17.829 21.8011 17.75 22 17.75H26C26.1989 17.75 26.3897 17.829 26.5303 17.9697C26.671 18.1103 26.75 18.3011 26.75 18.5C26.75 18.6989 26.671 18.8897 26.5303 19.0303C26.3897 19.171 26.1989 19.25 26 19.25Z" fill="white"/>
</svg>
