<svg width="40" height="40" viewBox="0 0 40 40" fill="none" xmlns="http://www.w3.org/2000/svg">
<path d="M27.2591 8.43116C27.2547 8.53349 27.2109 8.63015 27.1368 8.70084C27.0627 8.77153 26.964 8.81075 26.8616 8.81025H22.6339C22.5314 8.81079 22.4326 8.77161 22.3584 8.70094C22.2841 8.63027 22.2401 8.53359 22.2355 8.43116V8H17.0499V8.43116C17.0453 8.53359 17.0013 8.63027 16.927 8.70094C16.8527 8.77161 16.754 8.81079 16.6515 8.81025H12.4238C12.3214 8.81075 12.2227 8.77153 12.1486 8.70084C12.0745 8.63015 12.0307 8.53349 12.0263 8.43116V8H11V31.2812H28.2854V8H27.2591V8.43116ZM12.5951 19.5056H15.1461L14.6288 12.3528L14.6298 12.3592C14.6286 12.3444 14.6278 12.3302 14.6278 12.3149C14.6278 11.8872 15.0849 11.6678 16.3141 11.5042C17.2059 11.3854 18.388 11.3206 19.6427 11.3206C20.8974 11.3206 22.0794 11.3857 22.9713 11.5042C24.2005 11.6678 24.6576 11.8871 24.6576 12.3145C24.6576 12.3298 24.6568 12.3435 24.6557 12.3583L24.6586 12.3529L24.1414 19.5056H26.6903C26.7914 19.5074 26.8877 19.549 26.9585 19.6212C27.0292 19.6935 27.0687 19.7907 27.0684 19.8919C27.0684 21.4502 22.2111 21.8684 19.6427 21.8684C17.0743 21.8684 12.217 21.4494 12.217 19.891C12.2167 19.7899 12.2562 19.6929 12.327 19.6207C12.3978 19.5486 12.4941 19.5072 12.5951 19.5056ZM12.5168 24.7992H17.1965C17.2968 24.7992 17.3929 24.8391 17.4639 24.91C17.5348 24.9809 17.5746 25.0771 17.5746 25.1773C17.5746 25.2776 17.5348 25.3738 17.4639 25.4447C17.3929 25.5156 17.2968 25.5555 17.1965 25.5555H12.5168C12.4166 25.5555 12.3204 25.5156 12.2495 25.4447C12.1786 25.3738 12.1387 25.2776 12.1387 25.1773C12.1387 25.0771 12.1786 24.9809 12.2495 24.91C12.3204 24.8391 12.4166 24.7992 12.5168 24.7992ZM26.7685 29.4987H12.5168C12.4166 29.4987 12.3204 29.4589 12.2495 29.3879C12.1786 29.317 12.1387 29.2209 12.1387 29.1206C12.1387 29.0203 12.1786 28.9241 12.2495 28.8532C12.3204 28.7823 12.4166 28.7425 12.5168 28.7425H26.7685C26.8688 28.7425 26.965 28.7823 27.0359 28.8532C27.1068 28.9241 27.1467 29.0203 27.1467 29.1206C27.1467 29.2209 27.1068 29.317 27.0359 29.3879C26.965 29.4589 26.8688 29.4987 26.7685 29.4987ZM26.7685 27.5001H12.5168C12.4166 27.5001 12.3204 27.4602 12.2495 27.3893C12.1786 27.3184 12.1387 27.2222 12.1387 27.122C12.1387 27.0217 12.1786 26.9255 12.2495 26.8546C12.3204 26.7837 12.4166 26.7438 12.5168 26.7438H26.7685C26.8688 26.7438 26.965 26.7837 27.0359 26.8546C27.1068 26.9255 27.1467 27.0217 27.1467 27.122C27.1467 27.2222 27.1068 27.3184 27.0359 27.3893C26.965 27.4602 26.8688 27.5001 26.7685 27.5001Z" fill="white"/>
</svg>
