<svg width="41" height="40" viewBox="0 0 41 40" fill="none" xmlns="http://www.w3.org/2000/svg">
<path d="M20 9.625C13.7164 9.625 8.625 14.7164 8.625 21C8.625 27.2836 13.7164 32.375 20 32.375C26.2836 32.375 31.375 27.2836 31.375 21C31.375 14.7164 26.2836 9.625 20 9.625ZM20 31.4289C16.7953 31.4289 13.9242 29.9742 12.0102 27.6938C12.9836 27.2727 15.4117 26.3977 16.9484 25.9492C17.0687 25.9109 17.0906 25.9055 17.0906 25.3641C17.0906 24.7844 17.025 24.3742 16.8828 24.0734C16.6914 23.6633 16.4617 22.9688 16.3797 22.3453C16.15 22.0773 15.8383 21.5523 15.6359 20.5461C15.4609 19.6602 15.543 19.3375 15.6578 19.0367C15.6688 19.0039 15.6852 18.9711 15.6906 18.9383C15.7344 18.7359 15.6742 17.6531 15.5211 16.8164C15.4172 16.2422 15.5484 15.0227 16.3414 14.0109C16.8391 13.3711 17.7961 12.5891 19.5133 12.4797H20.4703C22.2148 12.5891 23.1719 13.3711 23.6695 14.0109C24.4625 15.0227 24.5938 16.2422 24.4844 16.8164C24.3313 17.6531 24.2711 18.7305 24.3148 18.9383C24.3203 18.9711 24.3367 19.0039 24.3477 19.0312C24.4625 19.332 24.55 19.6547 24.3695 20.5406C24.1672 21.5469 23.8555 22.0719 23.6258 22.3398C23.5437 22.9633 23.3141 23.6523 23.1227 24.068C22.9422 24.4453 22.7617 24.8937 22.7617 25.3422C22.7617 25.8836 22.7836 25.8891 22.9094 25.9273C24.3695 26.3594 26.8852 27.2289 27.9953 27.6828C26.0813 29.9688 23.2102 31.4289 20 31.4289Z" fill="white"/>
</svg>
