<svg width="41" height="40" viewBox="0 0 41 40" fill="none" xmlns="http://www.w3.org/2000/svg">
<path d="M14.752 9.33398C15.2329 9.33398 15.6107 9.71613 15.6107 10.177C15.6107 10.5141 15.897 10.7839 16.2404 10.7839H17.3739C19.1027 10.7951 20.511 12.1776 20.5224 13.8635V14.0771C21.6101 14.0771 22.6977 14.0996 23.7969 14.1108C27.7697 14.1108 30.6663 16.9432 30.6663 20.8545V25.8786C30.6663 29.79 27.7697 32.6224 23.7969 32.6224C22.2054 32.6561 20.614 32.6673 19.0111 32.6673C17.4082 32.6673 15.7939 32.6561 14.2025 32.6224C10.2296 32.6224 7.33301 29.79 7.33301 25.8786V20.8545C7.33301 16.9432 10.2296 14.1108 14.2139 14.1108C15.7138 14.0883 17.248 14.0658 18.805 14.0658V13.8748C18.805 13.0992 18.1524 12.4698 17.3739 12.4698H16.2404C14.9467 12.4698 13.8934 11.4358 13.8934 10.177C13.8934 9.71613 14.2826 9.33398 14.752 9.33398ZM15.5993 20.4949C15.1184 20.4949 14.7406 20.877 14.7406 21.3378V22.518H13.527C13.0576 22.518 12.6683 22.9001 12.6683 23.361C12.6683 23.833 13.0576 24.2039 13.527 24.2039H14.7406V25.3953C14.7406 25.8561 15.1184 26.2383 15.5993 26.2383C16.0687 26.2383 16.458 25.8561 16.458 25.3953V24.2039H17.6601C18.1295 24.2039 18.5188 23.833 18.5188 23.361C18.5188 22.9001 18.1295 22.518 17.6601 22.518H16.458V21.3378C16.458 20.877 16.0687 20.4949 15.5993 20.4949ZM24.5983 24.4849H24.4838C24.0018 24.4849 23.6251 24.8671 23.6251 25.3279C23.6251 25.7999 24.0018 26.1709 24.4838 26.1709H24.5983C25.0677 26.1709 25.457 25.7999 25.457 25.3279C25.457 24.8671 25.0677 24.4849 24.5983 24.4849ZM22.6405 20.6185H22.526C22.0451 20.6185 21.6673 21.0007 21.6673 21.4615C21.6673 21.9335 22.0451 22.3044 22.526 22.3044H22.6405C23.1099 22.3044 23.4992 21.9335 23.4992 21.4615C23.4992 21.0007 23.1099 20.6185 22.6405 20.6185Z" fill="white"/>
</svg>
