<svg width="40" height="40" viewBox="0 0 40 40" fill="none" xmlns="http://www.w3.org/2000/svg">
<path d="M19.9998 17.9167C20.8569 17.9167 21.6947 17.6625 22.4073 17.1864C23.1199 16.7102 23.6753 16.0334 24.0033 15.2416C24.3313 14.4498 24.4171 13.5785 24.2499 12.7379C24.0827 11.8974 23.67 11.1252 23.064 10.5192C22.4579 9.91318 21.6858 9.50047 20.8452 9.33327C20.0046 9.16606 19.1334 9.25188 18.3415 9.57986C17.5497 9.90784 16.873 10.4633 16.3968 11.1759C15.9207 11.8885 15.6665 12.7263 15.6665 13.5833C15.6665 14.7326 16.1231 15.8348 16.9357 16.6475C17.7484 17.4601 18.8506 17.9167 19.9998 17.9167ZM26.4998 28.75C26.7872 28.75 27.0627 28.6359 27.2659 28.4327C27.469 28.2295 27.5832 27.954 27.5832 27.6667C27.5832 25.6554 26.7842 23.7266 25.3621 22.3044C23.9399 20.8823 22.0111 20.0833 19.9998 20.0833C17.9886 20.0833 16.0598 20.8823 14.6376 22.3044C13.2155 23.7266 12.4165 25.6554 12.4165 27.6667C12.4165 27.954 12.5306 28.2295 12.7338 28.4327C12.937 28.6359 13.2125 28.75 13.4998 28.75H26.4998Z" fill="white"/>
</svg>
