<svg width="80" height="80" viewBox="0 0 80 80" fill="none" xmlns="http://www.w3.org/2000/svg">
<path d="M76.6664 32.3676C76.8313 27.5964 75.7879 22.861 73.6331 18.6009C72.1711 16.8529 70.1422 15.6733 67.8998 15.2676C58.6248 14.426 49.3115 14.0811 39.9998 14.2343C30.7219 14.0741 21.4421 14.4079 12.1998 15.2343C10.3725 15.5666 8.68149 16.4237 7.3331 17.7009C4.3331 20.4676 3.99976 25.2009 3.66643 29.2009C3.1828 36.3928 3.1828 43.609 3.66643 50.8009C3.76286 53.0523 4.09808 55.287 4.66643 57.4676C5.06835 59.1511 5.88151 60.7087 7.0331 62.0009C8.39066 63.3458 10.121 64.2516 11.9998 64.6009C19.1862 65.488 26.4272 65.8556 33.6664 65.7009C45.3331 65.8676 55.5664 65.7009 67.6664 64.7676C69.5913 64.4397 71.3704 63.5327 72.7664 62.1676C73.6996 61.234 74.3967 60.0912 74.7998 58.8343C75.9919 55.1763 76.5774 51.348 76.5331 47.5009C76.6664 45.6343 76.6664 34.3676 76.6664 32.3676ZM32.4664 49.5009V28.8676L52.1998 39.2343C46.6664 42.3009 39.3664 45.7676 32.4664 49.5009Z" fill="white"/>
</svg>
