<svg id="phone" viewBox="0 0 15 15" xmlns="http://www.w3.org/2000/svg">
<path d="M11.0877 9.24606L9.86196 9.93661C9.71486 10.0194 9.5447 10.0518 9.37746 10.0288C9.21022 10.0059 9.05509 9.92881 8.93576 9.8094L4.84462 5.71826C4.7253 5.59888 4.64829 5.44376 4.62532 5.27654C4.60236 5.10933 4.6347 4.93919 4.71741 4.79206L5.40796 3.5663C5.53226 3.34569 5.58093 3.09045 5.54653 2.83958C5.51213 2.58871 5.39655 2.35599 5.21745 2.17699L3.38027 0.339816C3.27259 0.232084 3.14475 0.146624 3.00403 0.0883173C2.86331 0.0300106 2.71249 0 2.56017 0C2.40785 0 2.25703 0.0300106 2.11631 0.0883173C1.97559 0.146624 1.84774 0.232084 1.74007 0.339816L0.905894 1.1734C0.418095 1.66119 0.107377 2.29806 0.0231463 2.98274C-0.0610848 3.66743 0.0860066 4.36062 0.441032 4.95209L0.859584 5.64968C2.99703 9.21202 6.01398 12.1654 9.62103 14.2265L9.70369 14.274C10.9359 14.978 12.4583 14.7728 13.4449 13.7868L14.316 12.9157C14.4237 12.808 14.5092 12.6802 14.5675 12.5395C14.6258 12.3988 14.6558 12.2479 14.6558 12.0956C14.6558 11.9433 14.6258 11.7925 14.5675 11.6518C14.5092 11.511 14.4237 11.3832 14.316 11.2755L12.4776 9.43716C12.2986 9.25783 12.0659 9.14206 11.8149 9.10755C11.5639 9.07304 11.3085 9.12169 11.0877 9.24606Z" />
</svg>
