<svg id="user" viewBox="0 0 16 16" fill="none" xmlns="http://www.w3.org/2000/svg">
<path d="M7.99967 7.33333C8.52709 7.33333 9.04266 7.17694 9.48119 6.88392C9.91973 6.5909 10.2615 6.17443 10.4634 5.68716C10.6652 5.19989 10.718 4.66371 10.6151 4.14643C10.5122 3.62914 10.2582 3.15399 9.88529 2.78105C9.51235 2.40811 9.0372 2.15413 8.51992 2.05124C8.00263 1.94835 7.46645 2.00116 6.97918 2.20299C6.49192 2.40482 6.07544 2.74662 5.78242 3.18515C5.48941 3.62368 5.33301 4.13925 5.33301 4.66667C5.33301 5.37391 5.61396 6.05219 6.11406 6.55229C6.61415 7.05238 7.29243 7.33333 7.99967 7.33333ZM11.9997 14C12.1765 14 12.3461 13.9298 12.4711 13.8047C12.5961 13.6797 12.6663 13.5101 12.6663 13.3333C12.6663 12.0957 12.1747 10.9087 11.2995 10.0335C10.4243 9.15833 9.23735 8.66667 7.99967 8.66667C6.762 8.66667 5.57501 9.15833 4.69984 10.0335C3.82467 10.9087 3.33301 12.0957 3.33301 13.3333C3.33301 13.5101 3.40325 13.6797 3.52827 13.8047C3.65329 13.9298 3.82286 14 3.99967 14H11.9997Z" fill="#CFCFCF"/>
</svg>
