<svg width="41" height="40" viewBox="0 0 41 40" fill="none" xmlns="http://www.w3.org/2000/svg">
<path d="M8.18069 6.09265C7.29472 6.39344 6.52907 7.41613 6.17906 8.76696C6.05874 9.22089 6.03139 9.46699 6.00952 10.2709C5.98217 11.2444 6.00952 11.5999 6.19546 12.3382C6.47985 13.5085 7.16347 14.482 7.96193 14.8758L8.31741 15.0508H19.9936H31.6698L32.0308 14.8703C32.9495 14.4219 33.6386 13.2898 33.9176 11.7694C34.0597 10.9983 34.0051 9.49433 33.8082 8.76149C33.4363 7.39426 32.7144 6.41532 31.8394 6.10906C31.544 5.99968 31.3253 5.99968 19.9827 5.99968C9.66824 6.00515 8.39945 6.01608 8.18069 6.09265ZM31.369 7.78802C31.6753 8.00131 31.9542 8.48805 32.1347 9.12791C32.2878 9.64199 32.3425 10.8014 32.2495 11.3921C32.1183 12.2069 31.8175 12.8905 31.4511 13.2132C31.2268 13.4046 31.0792 13.4265 30.8604 13.2843C30.2096 12.8523 29.7721 11.2335 29.9471 9.88263C30.144 8.37867 30.8057 7.39973 31.369 7.78802Z" fill="white"/>
<path d="M14.1421 16.7417C13.9781 16.7745 13.721 16.8675 13.5679 16.9386C13.207 17.1136 12.4741 17.8574 12.2116 18.3058C11.7522 19.1043 11.446 20.1981 11.353 21.3958C11.2928 22.1997 11.2764 29.1344 11.3366 29.1344C11.3584 29.1344 12.1132 28.4015 13.021 27.4991C14.7656 25.76 14.7875 25.7436 15.225 25.8256C15.3945 25.853 15.6024 26.0335 16.4829 26.9085L17.5329 27.9585L18.9712 26.5257C19.7587 25.7436 20.4588 25.0709 20.5244 25.0381C20.6939 24.9506 20.9564 24.9616 21.1588 25.0655C21.2572 25.1147 22.3346 26.1538 23.5597 27.3734L25.7855 29.5938L25.8074 24.8905C25.8238 20.3458 25.8293 20.1762 25.9387 19.7278C26.1902 18.7105 26.5785 17.9449 27.109 17.4253C27.47 17.0699 27.8528 16.862 28.3614 16.7527C28.6731 16.687 27.8637 16.6761 21.5799 16.6761C16.2258 16.6761 14.3664 16.6925 14.1421 16.7417ZM17.0626 19.3559C17.4891 19.5035 17.6641 19.6129 18.0142 19.9575C19.365 21.2974 18.6704 23.6053 16.7836 24.0264C15.6899 24.267 14.5687 23.6982 14.071 22.6373C13.907 22.2927 13.896 22.2325 13.896 21.6419C13.896 21.0348 13.9015 20.9966 14.082 20.6301C14.6398 19.4871 15.8922 18.9512 17.0626 19.3559Z" fill="white"/>
<path d="M15.8487 20.9307C15.5151 21.1385 15.3565 21.6033 15.5041 21.9807C15.5807 22.183 15.8377 22.4018 16.0729 22.4674C16.5432 22.5932 17.0518 22.2596 17.1229 21.7838C17.1722 21.4666 17.0081 21.0838 16.7565 20.9307C16.5159 20.783 16.0893 20.783 15.8487 20.9307Z" fill="white"/>
<path d="M8.49285 18.3591C7.73814 18.4848 7.04358 19.0919 6.59513 20.0107C6.17402 20.8857 6.04277 21.4654 6.00995 22.6358C5.98808 23.4124 5.99901 23.7131 6.07558 24.1397C6.26152 25.1788 6.64435 26.0429 7.18031 26.6172C7.75455 27.2351 8.23581 27.4375 9.14913 27.4375H9.71243V24.6046C9.71243 21.6732 9.75071 20.8966 9.94212 19.9724C10.0351 19.513 10.2484 18.7692 10.396 18.3973C10.4343 18.3098 10.3742 18.3044 9.59758 18.3098C9.13272 18.3153 8.63505 18.3372 8.49285 18.3591Z" fill="white"/>
<path d="M28.4435 18.3809C28.0771 18.5395 27.7544 19.0645 27.5302 19.8685C27.4099 20.2896 27.4099 20.3826 27.388 23.8663L27.3716 27.4375H29.3896C31.0686 27.4375 31.4514 27.4211 31.703 27.35C32.7749 27.0383 33.6116 25.8242 33.9124 24.1397C34.0546 23.3358 34.0054 21.8701 33.8085 21.1209C33.3984 19.5622 32.5233 18.5341 31.4459 18.3591C30.9428 18.277 28.6458 18.2934 28.4435 18.3809ZM31.5061 20.2458C31.7467 20.4865 31.9874 20.9623 32.135 21.4873C32.2882 22.0014 32.3429 23.1608 32.2499 23.7514C32.0749 24.8288 31.5389 25.7421 31.0795 25.7421C30.9155 25.7421 30.5217 25.3265 30.3358 24.9491C29.7451 23.735 29.7724 21.8756 30.4014 20.6943C30.7459 20.0435 31.1397 19.8849 31.5061 20.2458Z" fill="white"/>
<path d="M18.7362 28.9426C16.4502 31.2286 16.483 31.2067 16.0127 31.0153C15.7009 30.884 15.5095 30.627 15.5095 30.3262C15.5095 30.0364 15.5697 29.9379 16.0181 29.4731L16.4119 29.0793L15.7283 28.3957L15.0447 27.7121L13.1688 29.5824L11.293 31.4583L11.3094 32.4427C11.3258 33.3451 11.3367 33.4435 11.4461 33.6185C11.7031 34.0342 11.107 34.0013 18.5612 34.0013H25.2278L25.4083 33.8756C25.7365 33.6568 25.7911 33.4709 25.7911 32.6068V31.8411L23.3137 29.3637C21.9574 28.0074 20.8308 26.8917 20.8144 26.8917C20.798 26.8917 19.8628 27.816 18.7362 28.9426Z" fill="white"/>
</svg>
