<svg width="40" height="40" viewBox="0 0 40 40" fill="none" xmlns="http://www.w3.org/2000/svg">
<path d="M12.0707 8.06736C10.1471 8.47232 8.62854 9.89474 8.11221 11.793C8.01097 12.1726 7.99579 12.3346 8.00085 13.1344C8.00085 14.2076 8.07678 14.5467 8.47162 15.3617C9.15499 16.7538 10.3243 17.7004 11.8581 18.1053C12.2681 18.2116 12.4655 18.2319 13.0578 18.2319C13.5235 18.2369 13.888 18.2066 14.1208 18.1559C16.176 17.6953 17.6642 16.2071 18.1299 14.1468C18.2514 13.6052 18.2413 12.5422 18.1046 11.9803C17.8009 10.7502 17.1479 9.73782 16.1709 8.99877C15.7558 8.67986 14.9459 8.28502 14.4245 8.14329C13.9082 8.00661 12.582 7.96105 12.0707 8.06736ZM13.6247 9.82894C13.8829 9.97067 14.0955 10.1023 14.0955 10.1175C14.0955 10.1377 13.4071 10.5477 12.5668 11.0337L11.033 11.9195L11.0178 12.6535L11.0077 13.3875L11.4481 13.6406C11.6961 13.7773 11.9239 13.8988 11.9593 13.9089C12.0049 13.9241 12.0201 13.7571 12.0201 13.2002V12.4764L13.4223 11.6664C14.1917 11.221 14.8902 10.8211 14.9763 10.7705L15.1332 10.6895L15.6141 10.9729C15.8824 11.1349 16.1203 11.3172 16.1557 11.388C16.2064 11.4842 16.2216 11.8993 16.2114 13.1648C16.1962 14.7037 16.1912 14.8251 16.1001 14.9264C16.0494 14.9821 15.3711 15.3971 14.5916 15.8477C13.4476 16.5108 13.154 16.6576 13.0426 16.6373C12.9667 16.6222 12.2782 16.2476 11.5139 15.8072C10.3243 15.1187 10.1066 14.977 10.0358 14.8302C9.95479 14.6733 9.94466 14.4809 9.94466 13.1192C9.94466 11.9246 9.95985 11.55 10.0155 11.4184C10.0763 11.2716 10.2686 11.1451 11.5443 10.406C12.3441 9.94536 13.0375 9.56571 13.078 9.56571C13.1185 9.56571 13.3666 9.68214 13.6247 9.82894Z" fill="white"/>
<path d="M24.7001 8.0974C22.7715 8.48718 21.1213 9.73749 20.2709 11.4636C19.795 12.4305 19.6128 13.2202 19.6128 14.3186C19.6128 15.3664 19.7798 16.1409 20.1949 17.047C20.8834 18.5353 22.3412 19.8311 23.9155 20.3525C25.1405 20.7575 26.7401 20.7575 27.9651 20.3525C29.8229 19.735 31.3668 18.1759 31.9793 16.2928C32.2121 15.5791 32.283 15.0121 32.2526 14.0807C32.2223 13.1544 32.121 12.633 31.8122 11.899C30.9871 9.90454 29.1699 8.43656 27.059 8.07209C26.4668 7.96579 25.2822 7.98098 24.7001 8.0974ZM26.158 9.84886C26.4769 9.95516 26.816 10.269 26.9881 10.6183C27.1198 10.8815 27.1299 10.9625 27.1451 11.6003C27.1653 12.3343 27.1704 12.3141 26.8616 12.9164C26.8515 12.9417 27.3931 12.9569 28.0664 12.9569C29.3724 12.9569 29.4837 12.9772 29.6558 13.2202C29.7014 13.2809 29.7368 13.4277 29.7368 13.5492C29.7368 13.8124 29.5951 13.9946 29.3065 14.0959L29.1041 14.1668L29.2964 14.1718C29.7115 14.1718 29.9899 14.4249 29.9899 14.7995C29.9899 15.1437 29.6609 15.3766 29.1547 15.3918C29.0129 15.3968 28.9927 15.4069 29.0788 15.4221C29.3977 15.4829 29.6204 15.8018 29.5647 16.1106C29.509 16.4042 29.2256 16.6016 28.8408 16.6016H28.5979L28.8105 16.6978C29.2357 16.8901 29.3268 17.3254 29.0079 17.6444L28.8358 17.8165H28.0714C27.5652 17.8165 27.1501 17.8468 26.8413 17.9025C26.5427 17.9582 26.1074 17.9886 25.6619 17.9936C24.9735 17.9936 24.9431 17.9886 24.6242 17.8367C24.442 17.7507 24.204 17.6039 24.1028 17.5127L23.9155 17.3508V15.2601V13.1695L24.4116 12.8152C24.9633 12.4204 25.3177 12.066 25.4948 11.737C25.6012 11.5345 25.6113 11.4383 25.6265 10.6385L25.6467 9.76787H25.7834C25.8593 9.76787 26.0264 9.8033 26.158 9.84886ZM23.055 15.2601V17.3609H22.6753H22.2957V15.2601V13.1594H22.6753H23.055V15.2601Z" fill="white"/>
<path d="M17.1939 18.1865C17.0926 18.2928 17.0825 18.3586 17.0825 18.9407C17.0825 19.6696 17.1281 19.7709 17.447 19.8266C17.609 19.8519 17.6545 19.8316 17.7912 19.6949L17.9532 19.538L17.9329 18.9103C17.9228 18.3788 17.9026 18.2675 17.8216 18.1763C17.6849 18.0245 17.3407 18.0295 17.1939 18.1865Z" fill="white"/>
<path d="M19.7495 19.7359C19.3698 20.1206 19.3091 20.2067 19.3091 20.3535C19.3141 20.5458 19.38 20.6572 19.5521 20.7483C19.7647 20.8597 19.9317 20.7685 20.3974 20.2927C20.8277 19.8574 20.8378 19.8371 20.8125 19.6498C20.772 19.417 20.6201 19.2854 20.3772 19.2854C20.2051 19.2854 20.1443 19.3309 19.7495 19.7359Z" fill="white"/>
<path d="M13.8525 19.4361C13.5842 19.4969 13.407 19.7095 13.3058 20.079L13.2197 20.408L16.3784 23.5667L19.5371 26.7305L19.7649 26.7001C20.3875 26.614 20.7115 26.1787 20.5191 25.6776C20.4888 25.6016 20.0231 25.0904 19.4814 24.5437L18.4943 23.5515L18.6614 23.2832C18.8183 23.0301 18.8284 22.9846 18.8284 22.5492C18.8284 22.1038 18.8234 22.0734 18.6563 21.8304C18.2109 21.1724 17.4516 21.0205 16.7682 21.4559L16.5404 21.6027L15.5331 20.5902C14.3587 19.4159 14.2574 19.345 13.8525 19.4361Z" fill="white"/>
<path d="M12.9106 21.5447C12.6777 22.3698 12.2829 23.529 12.0349 24.0959C11.883 24.4452 11.7463 24.7692 11.7311 24.8249C11.7058 24.8957 12.0905 25.3057 13.4117 26.6269L15.1227 28.3379L15.7099 28.0494C16.4135 27.695 17.3044 27.3559 18.0941 27.1331C18.413 27.042 18.6813 26.9661 18.6863 26.961C18.6914 26.956 17.4158 25.6702 15.8466 24.101L12.9916 21.246L12.9106 21.5447Z" fill="white"/>
<path d="M26.4724 22.0727C23.7237 22.4473 21.7394 24.9479 22.038 27.6662C22.1747 28.952 22.6961 30.02 23.6073 30.8907C24.2501 31.5032 24.9791 31.9132 25.8396 32.1512C26.2142 32.2524 26.3863 32.2676 27.1557 32.2676C27.9201 32.2676 28.1023 32.2524 28.4719 32.1512C29.3628 31.9082 30.112 31.4678 30.7801 30.8047C31.4433 30.1415 31.8685 29.4126 32.1216 28.4964C32.2279 28.1167 32.2431 27.9598 32.2431 27.1803C32.2431 26.4108 32.2279 26.2387 32.1266 25.8641C31.6255 24.0165 30.1828 22.6143 28.32 22.1739C27.8189 22.0524 26.9583 22.0069 26.4724 22.0727ZM27.3683 24.7758C27.4443 24.9732 27.6012 25.3782 27.7227 25.687L27.9403 26.2438L28.9274 26.2944C29.7728 26.34 29.9145 26.3551 29.9297 26.426C29.9398 26.4817 29.6969 26.7095 29.2109 27.0993C28.811 27.4283 28.4719 27.7168 28.4567 27.7523C28.4465 27.7877 28.5529 28.2332 28.6895 28.7444C28.8819 29.4531 28.9274 29.6809 28.8768 29.7113C28.8363 29.7366 28.5124 29.5543 28.0011 29.2202C27.5506 28.9216 27.1557 28.6989 27.1102 28.714C27.0646 28.7242 26.6799 28.9671 26.2496 29.2456C25.8244 29.529 25.4549 29.7467 25.4296 29.7315C25.3587 29.686 25.3739 29.605 25.6118 28.7343C25.7384 28.2787 25.8396 27.8586 25.8396 27.8029C25.8396 27.7371 25.7232 27.6105 25.5258 27.4536C24.6399 26.7601 24.3159 26.4665 24.3716 26.4007C24.4071 26.3501 24.6855 26.3248 25.3233 26.2995C25.8143 26.2792 26.2547 26.2539 26.3003 26.2387C26.3559 26.2235 26.5027 25.8996 26.7255 25.3023C26.9938 24.5986 27.0899 24.3962 27.1507 24.4063C27.1962 24.4164 27.2873 24.5683 27.3683 24.7758Z" fill="white"/>
<path d="M20.2716 22.3204C20.1349 22.457 20.1349 22.7911 20.2665 22.9228C20.3931 23.0493 20.7221 23.0999 21.2688 23.0695C21.6687 23.0493 21.7143 23.0341 21.8256 22.9076C21.9724 22.7355 21.9775 22.5279 21.8358 22.3507C21.7345 22.2191 21.7244 22.2191 21.0512 22.2191C20.4387 22.2191 20.3627 22.2293 20.2716 22.3204Z" fill="white"/>
<path d="M10.309 26.5395C9.49405 27.3646 9.31688 27.5721 9.19033 27.8455C8.47658 29.3691 9.54467 31.0801 11.2151 31.0801C11.5998 31.0801 12.0605 30.9535 12.3845 30.7612C12.5059 30.6903 13.0223 30.2094 13.5386 29.6931L14.4751 28.7516L12.8805 27.157L11.2809 25.5574L10.309 26.5395Z" fill="white"/>
<path d="M14.4092 29.8803C14.1004 30.1942 13.8423 30.4726 13.8423 30.503C13.8423 30.5991 15.3862 32.0823 15.5988 32.1886C15.7557 32.2645 15.9076 32.2949 16.1506 32.2949C16.5707 32.2949 16.8187 32.1886 17.1326 31.8647L17.3553 31.6369L16.1961 30.4726C15.5583 29.8297 15.0217 29.3083 15.0065 29.3083C14.9914 29.3083 14.7231 29.5665 14.4092 29.8803Z" fill="white"/>
</svg>
