<svg width="41" height="40" viewBox="0 0 41 40" fill="none" xmlns="http://www.w3.org/2000/svg">
<g clip-path="url(#clip0_202_3593)">
<path d="M24.6117 28.377C24.3465 28.5622 24.0317 28.6634 23.7082 28.6673H18.2915C17.9633 28.6673 17.6534 28.5568 17.3869 28.377L16.7174 30.9694C16.6559 31.2095 16.65 31.4606 16.7003 31.7033C16.7505 31.9461 16.8556 32.1742 17.0075 32.3702C17.1593 32.5661 17.3539 32.7248 17.5765 32.8341C17.799 32.9433 18.0436 33.0003 18.2915 33.0006H23.7082C23.9561 33.0002 24.2007 32.9431 24.4232 32.8337C24.6457 32.7243 24.8403 32.5655 24.992 32.3694C25.1438 32.1733 25.2487 31.9452 25.2989 31.7023C25.349 31.4595 25.3429 31.2084 25.2812 30.9683L24.6117 28.377ZM21.4624 11.5929C21.2653 11.2711 20.7344 11.2711 20.5373 11.5929L14.5789 21.3429C14.5274 21.4273 14.4999 21.5242 14.4995 21.6232C14.4991 21.7221 14.5259 21.8192 14.5768 21.904L17.8268 27.3207C17.8749 27.401 17.943 27.4675 18.0244 27.5136C18.1059 27.5597 18.1979 27.584 18.2915 27.584H23.7082C23.8018 27.584 23.8938 27.5597 23.9753 27.5136C24.0567 27.4675 24.1248 27.401 24.1729 27.3207L27.4229 21.904C27.4739 21.8192 27.5006 21.7221 27.5002 21.6232C27.4998 21.5242 27.4723 21.4273 27.4208 21.3429L21.4624 11.5929ZM20.9999 23.2506C20.7113 23.2571 20.4244 23.206 20.1559 23.1001C19.8874 22.9942 19.6428 22.8357 19.4364 22.634C19.23 22.4323 19.066 22.1913 18.954 21.9253C18.842 21.6593 18.7843 21.3737 18.7842 21.0851C18.7841 20.7964 18.8417 20.5107 18.9536 20.2447C19.0655 19.9786 19.2293 19.7376 19.4356 19.5358C19.6419 19.334 19.8865 19.1754 20.1549 19.0693C20.4233 18.9633 20.7102 18.912 20.9988 18.9184C21.5649 18.9309 22.1036 19.1645 22.4996 19.5693C22.8956 19.974 23.1174 20.5177 23.1175 21.084C23.1177 21.6502 22.8961 22.194 22.5003 22.599C22.1046 23.0039 21.566 23.2378 20.9999 23.2506Z" fill="white"/>
<path d="M31.2919 6.99957C30.5855 6.99957 29.9897 7.45349 29.7665 8.08291H22.6252V7.54124C22.6252 7.39758 22.5681 7.25981 22.4666 7.15822C22.365 7.05664 22.2272 6.99957 22.0835 6.99957H19.9169C19.7732 6.99957 19.6354 7.05664 19.5339 7.15822C19.4323 7.25981 19.3752 7.39758 19.3752 7.54124V8.08291H12.2339C12.1084 7.71981 11.858 7.41313 11.5273 7.21762C11.1966 7.02211 10.8072 6.95052 10.4286 7.01561C10.05 7.08071 9.7069 7.27826 9.46051 7.57299C9.21412 7.86772 9.08051 8.24043 9.08355 8.62457C9.08051 9.00872 9.21412 9.38143 9.46051 9.67616C9.7069 9.97089 10.05 10.1684 10.4286 10.2335C10.8072 10.2986 11.1966 10.227 11.5273 10.0315C11.858 9.83602 12.1084 9.52934 12.2339 9.16624H16.8489C15.7331 9.77965 14.7664 10.6317 14.0178 11.6616C13.2691 12.6915 12.7569 13.874 12.5177 15.1246H11.7919C11.6482 15.1246 11.5104 15.1816 11.4089 15.2832C11.3073 15.3848 11.2502 15.5226 11.2502 15.6662V17.8329C11.2502 17.9766 11.3073 18.1143 11.4089 18.2159C11.5104 18.3175 11.6482 18.3746 11.7919 18.3746H13.9585C14.1022 18.3746 14.24 18.3175 14.3416 18.2159C14.4431 18.1143 14.5002 17.9766 14.5002 17.8329V15.6662C14.5002 15.5226 14.4431 15.3848 14.3416 15.2832C14.24 15.1816 14.1022 15.1246 13.9585 15.1246H13.6227C13.9322 13.7164 14.6384 12.4263 15.6578 11.4067C16.6772 10.3872 17.9671 9.68075 19.3752 9.37099V9.70791C19.3752 9.85157 19.4323 9.98934 19.5339 10.0909C19.6354 10.1925 19.7732 10.2496 19.9169 10.2496H22.0835C22.2272 10.2496 22.365 10.1925 22.4666 10.0909C22.5681 9.98934 22.6252 9.85157 22.6252 9.70791V9.37099C24.0333 9.68075 25.3233 10.3872 26.3427 11.4067C27.362 12.4263 28.0682 13.7164 28.3777 15.1246H28.0419C27.8982 15.1246 27.7604 15.1816 27.6589 15.2832C27.5573 15.3848 27.5002 15.5226 27.5002 15.6662V17.8329C27.5002 17.9766 27.5573 18.1143 27.6589 18.2159C27.7604 18.3175 27.8982 18.3746 28.0419 18.3746H30.2085C30.3522 18.3746 30.49 18.3175 30.5916 18.2159C30.6931 18.1143 30.7502 17.9766 30.7502 17.8329V15.6662C30.7502 15.5226 30.6931 15.3848 30.5916 15.2832C30.49 15.1816 30.3522 15.1246 30.2085 15.1246H29.4827C29.2435 13.874 28.7313 12.6915 27.9827 11.6616C27.234 10.6317 26.2673 9.77965 25.1515 9.16624H29.7665C29.8932 9.52801 30.1439 9.8332 30.4742 10.0276C30.8046 10.222 31.1931 10.293 31.5709 10.2281C31.9486 10.1631 32.2911 9.9664 32.5375 9.67283C32.784 9.37927 32.9184 9.00786 32.9169 8.62457C32.9169 8.1936 32.7457 7.78027 32.4409 7.47553C32.1362 7.17078 31.7229 6.99957 31.2919 6.99957Z" fill="white"/>
<path d="M20.9998 22.1667C21.5981 22.1667 22.0832 21.6816 22.0832 21.0833C22.0832 20.485 21.5981 20 20.9998 20C20.4015 20 19.9165 20.485 19.9165 21.0833C19.9165 21.6816 20.4015 22.1667 20.9998 22.1667Z" fill="white"/>
</g>
<defs>
<clipPath id="clip0_202_3593">
<rect width="26" height="26" fill="white" transform="translate(8 7)"/>
</clipPath>
</defs>
</svg>
