<svg width="40" height="40" viewBox="0 0 40 40" fill="none" xmlns="http://www.w3.org/2000/svg">
<path d="M25.4492 9.09375V29.012C25.4492 29.5897 25.1179 30.0796 24.6613 30.1767C23.734 30.374 20.8351 30.7736 20 30.7736C19.1649 30.7736 16.266 30.3739 15.3387 30.1767C14.8821 30.0796 14.5508 29.5898 14.5508 29.012V9.09375H13.4375V30.3888C13.4364 30.5995 13.5104 30.8036 13.6463 30.9645C13.7821 31.1255 13.9709 31.2327 14.1787 31.267C15.4516 31.4701 18.9543 31.8574 20 31.8574C21.0457 31.8574 24.5485 31.4701 25.8213 31.267C26.0291 31.2327 26.2179 31.1255 26.3538 30.9645C26.4896 30.8036 26.5636 30.5995 26.5625 30.3888V9.09375H25.4492Z" fill="white"/>
<path d="M29.3751 6.78232H24.5119V6.14453C24.5119 6.06683 24.481 5.99231 24.4261 5.93737C24.3711 5.88243 24.2966 5.85156 24.2189 5.85156C24.1412 5.85156 24.0667 5.88243 24.0117 5.93737C23.9568 5.99231 23.9259 6.06683 23.9259 6.14453V6.78232H16.0744V6.14453C16.0744 6.06683 16.0435 5.99231 15.9886 5.93737C15.9336 5.88243 15.8591 5.85156 15.7814 5.85156C15.7037 5.85156 15.6292 5.88243 15.5742 5.93737C15.5193 5.99231 15.4884 6.06683 15.4884 6.14453V6.78232H10.6251C9.75767 6.78232 9.75656 8.09541 10.6251 8.09541H15.4884V9.09355H15.1369V29.0118C15.1369 29.339 15.3015 29.5696 15.4607 29.6034C16.4304 29.8097 19.2609 30.1874 20.0001 30.1874C20.7394 30.1874 23.5699 29.8097 24.5395 29.6034C24.6988 29.5696 24.8634 29.339 24.8634 29.0118V9.09355H24.5119V8.09541H29.3751C30.2426 8.09541 30.2437 6.78232 29.3751 6.78232ZM16.0744 8.09535H23.9259V9.09355H16.0744V8.09535ZM23.1409 20.8221C23.6258 22.3134 21.3029 23.8521 20.3041 20.9469C20.4083 22.0939 20.2847 23.5763 19.22 24.5147L19.2149 24.5192C18.7777 24.9045 18.1958 24.2436 18.6327 23.8585C18.6604 23.8341 19.8902 23.115 19.7836 20.6724C18.8409 23.9464 16.3605 22.3575 16.8598 20.8221C15.1348 20.4559 15.1326 16.9837 19.4491 18.6906C15.8122 15.8058 18.8213 14.0724 20.0003 15.3824C21.1801 14.0717 24.1881 15.806 20.5516 18.6906C24.8684 16.9835 24.865 20.4561 23.1409 20.8221Z" fill="white"/>
</svg>
