<svg width="40" height="40" viewBox="0 0 40 40" fill="none" xmlns="http://www.w3.org/2000/svg">
<path d="M29.2963 24.2571L27.2667 23.2246L20.3444 26.7439C19.8137 27.0139 19.1872 27.0139 18.6565 26.7439L11.7342 23.2246L9.70457 24.2571C9.55134 24.335 9.42266 24.4537 9.33277 24.6002C9.24289 24.7467 9.19531 24.9153 9.19531 25.0871C9.19531 25.259 9.24289 25.4275 9.33277 25.574C9.42266 25.7205 9.55134 25.8393 9.70457 25.9172L18.6565 30.469C19.1872 30.739 19.8137 30.739 20.3444 30.469L29.2963 25.9172C29.4496 25.8393 29.5782 25.7205 29.6681 25.574C29.758 25.4275 29.8056 25.259 29.8056 25.0871C29.8056 24.9153 29.758 24.7467 29.6681 24.6002C29.5782 24.4537 29.4496 24.335 29.2963 24.2571Z" fill="white"/>
<path d="M29.2963 18.6712L27.2667 17.6387L20.3444 21.158C19.8137 21.428 19.1872 21.428 18.6565 21.158L11.7342 17.6387L9.70457 18.6712C9.55134 18.7491 9.42266 18.8678 9.33277 19.0143C9.24289 19.1608 9.19531 19.3293 9.19531 19.5012C9.19531 19.6731 9.24289 19.8416 9.33277 19.9881C9.42266 20.1346 9.55134 20.2534 9.70457 20.3312L18.6565 24.8831C19.1872 25.1531 19.8137 25.1531 20.3444 24.8831L29.2963 20.3312C29.4496 20.2534 29.5782 20.1346 29.6681 19.9881C29.758 19.8416 29.8056 19.6731 29.8056 19.5012C29.8056 19.3293 29.758 19.1608 29.6681 19.0143C29.5782 18.8678 29.4496 18.7491 29.2963 18.6712Z" fill="white"/>
<path d="M18.6564 8.53255L9.70359 13.0844C9.55037 13.1622 9.42168 13.281 9.3318 13.4275C9.24191 13.574 9.19434 13.7425 9.19434 13.9144C9.19434 14.0863 9.24191 14.2548 9.3318 14.4013C9.42168 14.5478 9.55037 14.6665 9.70359 14.7444L18.6555 19.2962C19.1862 19.5662 19.8128 19.5662 20.3435 19.2962L29.2954 14.7444C29.4486 14.6665 29.5773 14.5478 29.6671 14.4013C29.757 14.2548 29.8046 14.0863 29.8046 13.9144C29.8046 13.7425 29.757 13.574 29.6671 13.4275C29.5773 13.281 29.4486 13.1622 29.2954 13.0844L20.3435 8.53255C20.0822 8.39946 19.7931 8.33008 19.4999 8.33008C19.2067 8.33008 18.9177 8.39946 18.6564 8.53255Z" fill="white"/>
</svg>
