<svg width="40" height="40" viewBox="0 0 40 40" fill="none" xmlns="http://www.w3.org/2000/svg">
<path d="M28.7 11H10.3C9.035 11 8.0115 12.0125 8.0115 13.25L8 26.75C8 27.9875 9.035 29 10.3 29H28.7C29.965 29 31 27.9875 31 26.75V13.25C31 12.0125 29.965 11 28.7 11ZM28.24 15.7812L20.1095 20.7538C19.7415 20.9788 19.2585 20.9788 18.8905 20.7538L10.76 15.7812C10.4725 15.6013 10.3 15.2975 10.3 14.9713C10.3 14.2175 11.1395 13.7675 11.795 14.1612L19.5 18.875L27.205 14.1612C27.8605 13.7675 28.7 14.2175 28.7 14.9713C28.7 15.2975 28.5275 15.6013 28.24 15.7812Z" fill="white"/>
</svg>
