<svg width="41" height="40" viewBox="0 0 41 40" fill="none" xmlns="http://www.w3.org/2000/svg">
<g clip-path="url(#clip0_202_3613)">
<path d="M21.7783 19.3203C21.7783 18.3271 20.9697 17.5215 19.9795 17.5215C18.9893 17.5215 18.1807 18.3271 18.1807 19.3203C18.1807 20.3105 18.9893 21.1162 19.9795 21.1162C20.9697 21.1162 21.7783 20.3105 21.7783 19.3203ZM16.4785 25.124V26.1641C16.4785 26.4072 16.6748 26.6035 16.918 26.6035H23.041C23.2842 26.6035 23.4805 26.4072 23.4805 26.1641V25.124C23.4805 23.1934 21.9102 21.623 19.9795 21.623C18.0488 21.623 16.4785 23.1934 16.4785 25.124Z" fill="white"/>
</g>
<g clip-path="url(#clip1_202_3613)">
<path d="M24.1455 9.04102H15.8122C14.3747 9.04102 13.208 10.2077 13.208 11.6452V29.3535C13.208 30.791 14.3747 31.9577 15.8122 31.9577H24.1455C25.583 31.9577 26.7497 30.791 26.7497 29.3535V11.6452C26.7497 10.2077 25.583 9.04102 24.1455 9.04102ZM19.9788 30.916C19.1143 30.916 18.4163 30.2181 18.4163 29.3535C18.4163 28.4889 19.1143 27.791 19.9788 27.791C20.8434 27.791 21.5413 28.4889 21.5413 29.3535C21.5413 30.2181 20.8434 30.916 19.9788 30.916ZM24.6663 26.7494H15.2913V12.166H24.6663V26.7494Z" fill="white"/>
</g>
<defs>
<clipPath id="clip0_202_3613">
<rect width="9.375" height="9.375" fill="white" transform="translate(15.292 17.375)"/>
</clipPath>
<clipPath id="clip1_202_3613">
<rect width="25" height="25" fill="white" transform="translate(8 8)"/>
</clipPath>
</defs>
</svg>
