<svg width="40" height="40" viewBox="0 0 40 40" fill="none" xmlns="http://www.w3.org/2000/svg">
<path d="M13.6487 9.00001C13.0379 8.99864 12.4328 9.11795 11.8681 9.35108C11.3035 9.58422 10.7905 9.92659 10.3585 10.3585C9.92659 10.7905 9.58422 11.3035 9.35108 11.8681C9.11795 12.4328 8.99864 13.0379 9.00001 13.6487V26.3513C8.99864 26.9621 9.11795 27.5673 9.35108 28.1319C9.58422 28.6965 9.92659 29.2095 10.3585 29.6415C10.7905 30.0734 11.3035 30.4158 11.8681 30.6489C12.4328 30.8821 13.0379 31.0014 13.6487 31H26.3513C26.9621 31.0014 27.5673 30.8821 28.1319 30.6489C28.6965 30.4158 29.2095 30.0734 29.6415 29.6415C30.0734 29.2095 30.4158 28.6965 30.6489 28.1319C30.8821 27.5673 31.0014 26.9621 31 26.3513V13.6487C31.0014 13.0379 30.8821 12.4328 30.6489 11.8681C30.4158 11.3035 30.0734 10.7905 29.6415 10.3585C29.2095 9.92659 28.6965 9.58422 28.1319 9.35108C27.5673 9.11795 26.9621 8.99864 26.3513 9.00001H13.6487ZM12.0537 12.6667H27.9469V24.8889H20.308V27.9445H22.4469V28.5556H17.558V27.9445H19.6969V24.8889H12.0531V12.6667H12.0537ZM12.6648 13.2778V24.2778H27.3358V13.2778H12.6642H12.6648ZM13.8767 14.5H26.1276V22.4445H13.8767V14.5ZM14.4878 15.1111V21.8333H25.5165V15.1111H14.4878ZM15.7375 16.9445H17.8636V17.5556H16.3486V18.1667H17.8721V20H15.7332V19.3889H17.261V18.7778H15.7375V16.9445ZM18.7802 16.9445H20.9191V17.5556H19.3913V18.1667H20.6136V18.7778H19.3913V19.3938H20.9191V20.0049H18.7802V16.9445ZM21.8358 16.9445H24.2802V20H21.8358V16.9445ZM22.4469 17.5556V19.3889H23.6691V17.5556H22.4469ZM20 22.7311C20.1621 22.7311 20.3175 22.7954 20.4321 22.9101C20.5467 23.0247 20.6111 23.1801 20.6111 23.3422C20.6111 23.5043 20.5467 23.6597 20.4321 23.7743C20.3175 23.8889 20.1621 23.9533 20 23.9533C19.8379 23.9533 19.6825 23.8889 19.5679 23.7743C19.4533 23.6597 19.3889 23.5043 19.3889 23.3422C19.3889 23.1801 19.4533 23.0247 19.5679 22.9101C19.6825 22.7954 19.8379 22.7311 20 22.7311Z" fill="white"/>
</svg>
