<svg width="200" height="200" viewBox="0 0 200 200" fill="none" xmlns="http://www.w3.org/2000/svg">
<g clip-path="url(#clip0_211_3653)">
<path d="M215 -694C244.5 -689 328.5 -654 292.5 -573C256.5 -492 236 -511 225.5 -451.5C215 -392 211 -450 174 -354C137 -258 124 -238 167 -198C210 -158 87.0001 -144 60.5001 -87C34.0001 -30 -8.50025 129 24.9998 158.5C58.4998 188 102.5 219 192.5 203.5C282.5 188 282 295.5 289.5 334C297 372.5 273 466.5 244.5 494" stroke="white" stroke-dasharray="10 10"/>
</g>
<defs>
<clipPath id="clip0_211_3653">
<rect width="200" height="200" fill="white"/>
</clipPath>
</defs>
</svg>
