<svg width="41" height="40" viewBox="0 0 41 40" fill="none" xmlns="http://www.w3.org/2000/svg">
<path d="M9.58482 10.5049C9.36409 10.5061 9.15273 10.5943 8.99656 10.7502C8.84039 10.9062 8.75198 11.1175 8.75049 11.3382V28.6655C8.75049 29.1228 9.1275 29.497 9.58482 29.497H30.4185C30.8758 29.497 31.25 29.1228 31.25 28.6655V11.3382C31.2495 11.1176 31.1618 10.9061 31.0061 10.7498C30.8504 10.5936 30.6392 10.5052 30.4185 10.5039L9.58482 10.5049ZM9.25033 13.005H30.7502V28.6655C30.7502 28.8545 30.6075 28.9972 30.4185 28.9972H9.58387C9.53999 28.998 9.49637 28.9901 9.45562 28.9737C9.41488 28.9574 9.37784 28.9331 9.34671 28.9021C9.31558 28.8712 9.29101 28.8343 9.27445 28.7936C9.25789 28.753 9.24969 28.7094 9.25033 28.6655V13.005ZM11.0021 13.5729C10.3152 13.5729 9.75112 14.1351 9.75112 14.822C9.75112 15.5099 10.3152 16.0721 11.0021 16.0721C11.69 16.0721 12.2513 15.5099 12.2513 14.822C12.2513 14.1351 11.69 13.5729 11.0021 13.5729ZM21.2371 13.8734C21.1086 13.8744 20.9856 13.9258 20.8948 14.0167C20.8039 14.1076 20.7524 14.2305 20.7514 14.359V15.285C20.7514 15.5496 20.9725 15.7726 21.2371 15.7726H29.7666C29.8952 15.7711 30.0182 15.7192 30.109 15.628C30.1998 15.5369 30.2512 15.4137 30.2522 15.285V14.359C30.2512 14.2305 30.1997 14.1076 30.1089 14.0167C30.018 13.9258 29.8951 13.8744 29.7666 13.8734H21.2371ZM15.976 14.5726C15.9096 14.576 15.8472 14.6056 15.8027 14.6549C15.7581 14.7043 15.735 14.7693 15.7384 14.8357C15.7417 14.9021 15.7714 14.9645 15.8207 15.0091C15.8701 15.0536 15.9351 15.0767 16.0015 15.0734H17.0021C17.0686 15.0734 17.1322 15.047 17.1792 15C17.2262 14.9531 17.2525 14.8894 17.2525 14.823C17.2525 14.7566 17.2262 14.6929 17.1792 14.6459C17.1322 14.599 17.0686 14.5726 17.0021 14.5726H16.0006C15.9924 14.5722 15.9842 14.5722 15.976 14.5726ZM13.4749 14.5726C13.4085 14.5757 13.346 14.6051 13.3013 14.6543C13.2566 14.7034 13.2332 14.7684 13.2363 14.8348C13.2394 14.9012 13.2688 14.9636 13.318 15.0084C13.3672 15.0531 13.4321 15.0765 13.4985 15.0734H14.5001C14.5665 15.0734 14.6302 15.047 14.6771 15C14.7241 14.9531 14.7505 14.8894 14.7505 14.823C14.7505 14.7566 14.7241 14.6929 14.6771 14.6459C14.6302 14.599 14.5665 14.5726 14.5001 14.5726H13.4985C13.4906 14.5722 13.4828 14.5722 13.4749 14.5726ZM14.9877 18.3379C14.7701 18.3392 14.5618 18.4262 14.4081 18.5801C14.2543 18.734 14.1675 18.9424 14.1666 19.16V23.016C14.1666 23.4677 14.5369 23.8381 14.9886 23.8381H15.0925L17.8006 21.4003C17.8421 21.3625 17.8951 21.3398 17.9499 21.3351C17.9833 21.3328 18.0169 21.3374 18.0486 21.3484C18.0802 21.3594 18.1093 21.3768 18.1341 21.3993L19.7782 22.88L21.8683 20.9997C21.9161 20.9569 21.9785 20.9341 22.0426 20.9359C22.1067 20.9376 22.1677 20.9638 22.2132 21.0091L24.9968 23.8371H25.0147C25.4654 23.8371 25.8358 23.4677 25.8358 23.016V19.1609C25.8348 18.9432 25.7479 18.7347 25.594 18.5807C25.44 18.4268 25.2315 18.3399 25.0138 18.3389L14.9877 18.3379ZM20.0003 19.3376C20.4944 19.3376 20.9007 19.7439 20.9007 20.2371C20.9007 20.7304 20.4944 21.1376 20.0003 21.1376C19.7622 21.1361 19.5343 21.0407 19.3662 20.8721C19.1981 20.7034 19.1034 20.4752 19.1026 20.2371C19.1026 19.743 19.5061 19.3376 20.0003 19.3376ZM20.0003 19.8384C19.9477 19.8378 19.8956 19.8476 19.8469 19.8675C19.7983 19.8873 19.754 19.9166 19.7169 19.9538C19.6797 19.9909 19.6504 20.0351 19.6306 20.0838C19.6108 20.1325 19.6009 20.1846 19.6015 20.2371C19.6015 20.4611 19.7763 20.6378 20.0003 20.6378C20.053 20.6383 20.1053 20.6283 20.1542 20.6083C20.203 20.5883 20.2474 20.5589 20.2847 20.5216C20.322 20.4843 20.3515 20.4399 20.3714 20.3911C20.3914 20.3422 20.4014 20.2899 20.4009 20.2371C20.4011 20.1845 20.3909 20.1324 20.3709 20.0838C20.3508 20.0352 20.3213 19.9911 20.284 19.954C20.2467 19.9169 20.2024 19.8875 20.1537 19.8677C20.105 19.8479 20.0528 19.8379 20.0003 19.8384ZM22.0251 21.5297L20.1533 23.2173L20.8421 23.8371H24.2957L22.0251 21.5297ZM17.9669 21.9219L15.839 23.8371H20.0947L17.9669 21.9219ZM13.9766 24.9634C13.9102 24.9667 13.8478 24.9962 13.8032 25.0455C13.7585 25.0947 13.7353 25.1597 13.7385 25.2261C13.7418 25.2925 13.7713 25.3549 13.8205 25.3996C13.8698 25.4442 13.9348 25.4675 14.0012 25.4642H17.0021C17.0686 25.4642 17.1322 25.4379 17.1792 25.3909C17.2262 25.3439 17.2525 25.2802 17.2525 25.2138C17.2525 25.1474 17.2262 25.0837 17.1792 25.0368C17.1322 24.9898 17.0686 24.9634 17.0021 24.9634H14.0003C13.9921 24.963 13.9848 24.963 13.9766 24.9634ZM18.4762 24.9634C18.4097 24.967 18.3475 24.9967 18.303 25.0461C18.2585 25.0956 18.2355 25.1606 18.239 25.2271C18.2425 25.2935 18.2722 25.3558 18.3217 25.4002C18.3711 25.4447 18.4362 25.4677 18.5026 25.4642H23.0012C23.0676 25.4642 23.1313 25.4379 23.1783 25.3909C23.2252 25.3439 23.2516 25.2802 23.2516 25.2138C23.2516 25.1474 23.2252 25.0837 23.1783 25.0368C23.1313 24.9898 23.0676 24.9634 23.0012 24.9634H18.5026C18.4938 24.963 18.485 24.963 18.4762 24.9634ZM24.4762 24.9634C24.4097 24.9668 24.3474 24.9964 24.3028 25.0458C24.2583 25.0951 24.2351 25.1602 24.2385 25.2266C24.2419 25.293 24.2715 25.3553 24.3209 25.3999C24.3702 25.4445 24.4353 25.4676 24.5017 25.4642H26.0021C26.0686 25.4642 26.1322 25.4379 26.1792 25.3909C26.2262 25.3439 26.2525 25.2802 26.2525 25.2138C26.2525 25.1474 26.2262 25.0837 26.1792 25.0368C26.1322 24.9898 26.0686 24.9634 26.0021 24.9634H24.5017C24.4932 24.963 24.4847 24.963 24.4762 24.9634ZM27.3014 26.5943C27.2919 26.5938 27.2824 26.5938 27.273 26.5943H12.7284C12.7203 26.5939 12.7121 26.5939 12.7039 26.5943C12.641 26.602 12.5834 26.6331 12.5426 26.6815C12.5018 26.7299 12.4809 26.792 12.484 26.8552C12.4871 26.9184 12.514 26.9781 12.5594 27.0223C12.6048 27.0664 12.6652 27.0918 12.7284 27.0932H27.2749C27.3089 27.0974 27.3435 27.0945 27.3764 27.0848C27.4093 27.0751 27.4398 27.0587 27.4661 27.0367C27.4924 27.0147 27.514 26.9875 27.5293 26.9568C27.5447 26.9262 27.5536 26.8927 27.5555 26.8584C27.5573 26.8242 27.5522 26.7899 27.5403 26.7577C27.5283 26.7256 27.5099 26.6962 27.4862 26.6714C27.4625 26.6466 27.4339 26.627 27.4023 26.6138C27.3706 26.6005 27.3357 26.5939 27.3014 26.5943Z" fill="white"/>
</svg>
