<svg width="185" height="185" viewBox="0 0 185 185" fill="none" xmlns="http://www.w3.org/2000/svg">
<g clip-path="url(#clip0_211_3657)">
<path d="M96.9999 0C126.5 5 210.5 40 174.5 121C138.5 202 118 183 107.5 242.5C96.9999 302 92.9999 244 55.9999 340C18.9999 436 5.99986 456 48.9999 496C91.9999 536 -30.9999 550 -57.4999 607C-83.9999 664 -126.5 823 -93.0002 852.5C-59.5002 882 -15.5002 913 74.4998 897.5C164.5 882 164 989.5 171.5 1028C179 1066.5 155 1160.5 126.5 1188" stroke="white" stroke-dasharray="10 10"/>
</g>
<defs>
<clipPath id="clip0_211_3657">
<rect width="185" height="185" fill="white"/>
</clipPath>
</defs>
</svg>
