<svg width="186" height="186" viewBox="0 0 186 186" fill="none" xmlns="http://www.w3.org/2000/svg">
<g clip-path="url(#clip0_211_3651)">
<path d="M99.9999 -1002C129.5 -997 213.5 -962 177.5 -881C141.5 -800 121 -819 110.5 -759.5C99.9999 -700 95.9999 -758 58.9999 -662C21.9999 -566 8.99986 -546 51.9999 -506C94.9999 -466 -27.9999 -452 -54.4999 -395C-80.9999 -338 -123.5 -179 -90.0002 -149.5C-56.5002 -120 -12.5002 -89 77.4998 -104.5C167.5 -120 167 -12.5 174.5 26C182 64.5 158 158.5 129.5 186" stroke="white" stroke-dasharray="10 10"/>
</g>
<defs>
<clipPath id="clip0_211_3651">
<rect width="186" height="186" fill="white"/>
</clipPath>
</defs>
</svg>
