<svg width="203" height="203" viewBox="0 0 203 203" fill="none" xmlns="http://www.w3.org/2000/svg">
<g clip-path="url(#clip0_211_3655)">
<path d="M161 -298C190.5 -293 274.5 -258 238.5 -177C202.5 -96 182 -115 171.5 -55.5C161 4 157 -54 120 42C82.9999 138 69.9999 158 113 198C156 238 33.0001 252 6.50006 309C-19.9999 366 -62.5002 525 -29.0002 554.5C4.49975 584 48.4998 615 138.5 599.5C228.5 584 228 691.5 235.5 730C243 768.5 219 862.5 190.5 890" stroke="white" stroke-dasharray="10 10"/>
</g>
<defs>
<clipPath id="clip0_211_3655">
<rect width="203" height="203" fill="white"/>
</clipPath>
</defs>
</svg>
