<svg width="40" height="40" viewBox="0 0 40 40" fill="none" xmlns="http://www.w3.org/2000/svg">
<path d="M10.7918 12.5C10.5776 12.5 10.3681 12.5635 10.19 12.6826C10.0118 12.8016 9.87296 12.9708 9.79096 13.1688C9.70897 13.3667 9.68751 13.5845 9.72931 13.7947C9.77111 14.0048 9.87429 14.1979 10.0258 14.3494C10.1773 14.5009 10.3703 14.6041 10.5805 14.6459C10.7906 14.6877 11.0085 14.6662 11.2064 14.5842C11.4044 14.5022 11.5736 14.3634 11.6926 14.1852C11.8116 14.007 11.8752 13.7976 11.8752 13.5833C11.8752 13.296 11.761 13.0205 11.5579 12.8173C11.3547 12.6141 11.0791 12.5 10.7918 12.5ZM15.1252 14.6667H30.2918C30.5791 14.6667 30.8547 14.5525 31.0579 14.3494C31.261 14.1462 31.3752 13.8707 31.3752 13.5833C31.3752 13.296 31.261 13.0205 31.0579 12.8173C30.8547 12.6141 30.5791 12.5 30.2918 12.5H15.1252C14.8378 12.5 14.5623 12.6141 14.3591 12.8173C14.156 13.0205 14.0418 13.296 14.0418 13.5833C14.0418 13.8707 14.156 14.1462 14.3591 14.3494C14.5623 14.5525 14.8378 14.6667 15.1252 14.6667ZM15.1252 17.9167C14.9109 17.9167 14.7014 17.9802 14.5233 18.0992C14.3451 18.2183 14.2063 18.3875 14.1243 18.5854C14.0423 18.7834 14.0208 19.0012 14.0626 19.2113C14.1044 19.4215 14.2076 19.6145 14.3591 19.766C14.5106 19.9175 14.7037 20.0207 14.9138 20.0625C15.124 20.1043 15.3418 20.0829 15.5397 20.0009C15.7377 19.9189 15.9069 19.78 16.0259 19.6019C16.145 19.4237 16.2085 19.2143 16.2085 19C16.2085 18.7127 16.0944 18.4371 15.8912 18.234C15.688 18.0308 15.4125 17.9167 15.1252 17.9167ZM19.4585 23.3333C19.2442 23.3333 19.0348 23.3969 18.8566 23.5159C18.6785 23.6349 18.5396 23.8041 18.4576 24.0021C18.3756 24.2 18.3542 24.4179 18.396 24.628C18.4378 24.8382 18.541 25.0312 18.6925 25.1827C18.844 25.3342 19.037 25.4374 19.2471 25.4792C19.4573 25.521 19.6751 25.4995 19.8731 25.4175C20.071 25.3355 20.2402 25.1967 20.3593 25.0185C20.4783 24.8404 20.5418 24.6309 20.5418 24.4167C20.5418 24.1293 20.4277 23.8538 20.2245 23.6506C20.0214 23.4475 19.7458 23.3333 19.4585 23.3333ZM30.2918 17.9167H19.4585C19.1712 17.9167 18.8956 18.0308 18.6925 18.234C18.4893 18.4371 18.3752 18.7127 18.3752 19C18.3752 19.2873 18.4893 19.5629 18.6925 19.766C18.8956 19.9692 19.1712 20.0833 19.4585 20.0833H30.2918C30.5791 20.0833 30.8547 19.9692 31.0579 19.766C31.261 19.5629 31.3752 19.2873 31.3752 19C31.3752 18.7127 31.261 18.4371 31.0579 18.234C30.8547 18.0308 30.5791 17.9167 30.2918 17.9167ZM30.2918 23.3333H23.7918C23.5045 23.3333 23.229 23.4475 23.0258 23.6506C22.8226 23.8538 22.7085 24.1293 22.7085 24.4167C22.7085 24.704 22.8226 24.9795 23.0258 25.1827C23.229 25.3859 23.5045 25.5 23.7918 25.5H30.2918C30.5791 25.5 30.8547 25.3859 31.0579 25.1827C31.261 24.9795 31.3752 24.704 31.3752 24.4167C31.3752 24.1293 31.261 23.8538 31.0579 23.6506C30.8547 23.4475 30.5791 23.3333 30.2918 23.3333Z" fill="white"/>
</svg>
