<svg width="40" height="40" viewBox="0 0 40 40" fill="none" xmlns="http://www.w3.org/2000/svg">
<path d="M20.0029 10.125C15.6509 10.125 12.1245 11.3842 12.1245 12.9375C12.1245 13.2355 12.2556 13.5226 12.4962 13.7921L12.4941 13.7924C13.6158 15.1598 17.7499 20.0039 17.7499 21.375V24.4336C17.7499 25.2312 18.7656 25.875 19.9999 25.875C21.2342 25.875 22.2499 25.2312 22.2499 24.4336V21.5125C22.2499 21.4689 22.2502 21.4232 22.2502 21.375C22.2502 20.0039 26.328 15.2378 27.5585 13.7131V13.713C27.7694 13.4667 27.8741 13.2065 27.8741 12.9375C27.8741 11.3842 24.3549 10.125 20.0029 10.125ZM20.0062 14.625C16.7697 14.625 13.8147 13.8516 13.8147 12.9375C13.8147 12.0234 16.7346 11.25 20.0062 11.25C23.2778 11.25 26.1976 12.038 26.1976 12.9375C26.1976 13.837 23.2426 14.625 20.0062 14.625Z" fill="white"/>
</svg>
