<svg width="40" height="40" viewBox="0 0 40 40" fill="none" xmlns="http://www.w3.org/2000/svg">
<g clip-path="url(#clip0_202_3585)">
<path fill-rule="evenodd" clip-rule="evenodd" d="M19.25 8.75V12.5C19.25 12.6989 19.329 12.8897 19.4697 13.0303C19.6103 13.171 19.8011 13.25 20 13.25C20.1989 13.25 20.3897 13.171 20.5303 13.0303C20.671 12.8897 20.75 12.6989 20.75 12.5V8.75C20.75 8.55109 20.671 8.36032 20.5303 8.21967C20.3897 8.07902 20.1989 8 20 8C19.8011 8 19.6103 8.07902 19.4697 8.21967C19.329 8.36032 19.25 8.55109 19.25 8.75Z" fill="white"/>
<path fill-rule="evenodd" clip-rule="evenodd" d="M21.6935 9.69336H18.3057C18.1068 9.69336 17.9161 9.77238 17.7754 9.91303C17.6348 10.0537 17.5557 10.2444 17.5557 10.4434C17.5557 10.6423 17.6348 10.833 17.7754 10.9737C17.9161 11.1143 18.1068 11.1934 18.3057 11.1934H21.6935C21.8924 11.1934 22.0832 11.1143 22.2238 10.9737C22.3645 10.833 22.4435 10.6423 22.4435 10.4434C22.4435 10.2444 22.3645 10.0537 22.2238 9.91303C22.0832 9.77238 21.8924 9.69336 21.6935 9.69336ZM30.5 30.8509C30.4996 30.559 30.3835 30.2792 30.1771 30.0728C29.9707 29.8664 29.6909 29.7503 29.399 29.7499H10.6235C10.3255 29.7499 10.0398 29.8682 9.82907 30.0789C9.61837 30.2896 9.5 30.5754 9.5 30.8734V30.8764C9.5 31.1743 9.61837 31.4601 9.82907 31.6708C10.0398 31.8815 10.3255 31.9999 10.6235 31.9999H29.3525C29.5032 31.9999 29.6524 31.9702 29.7916 31.9125C29.9309 31.8548 30.0574 31.7703 30.1639 31.6638C30.2705 31.5572 30.355 31.4307 30.4127 31.2915C30.4703 31.1523 30.5 31.003 30.5 30.8524V30.8509ZM13.3302 24.4999H15.3335C14.5243 23.1139 14 21.2779 14 19.2499C14 17.5991 14.3472 16.0751 14.9128 14.8181C14.2085 14.5834 13.52 14.4746 12.8915 14.4964C11.9315 14.5301 11.096 14.8586 10.4802 15.4736C9.7475 16.2064 9.42125 17.2549 9.5165 18.4481C9.64175 20.0246 10.523 21.8809 12.071 23.4289C12.461 23.8194 12.8822 24.1776 13.3302 24.4999ZM17.15 24.4999H22.85C23.84 23.2916 24.5 21.3926 24.5 19.2499C24.5 17.0606 23.8107 15.1249 22.7847 13.9219C22.0085 13.0106 21.0358 12.4999 20 12.4999C18.9642 12.4999 17.9915 13.0106 17.2153 13.9219C16.1892 15.1249 15.5 17.0606 15.5 19.2499C15.5 21.3926 16.16 23.2916 17.15 24.4999ZM24.6665 24.4999H26.6698C27.1178 24.1776 27.539 23.8194 27.929 23.4289C29.477 21.8809 30.3582 20.0246 30.4835 18.4481C30.5788 17.2549 30.2525 16.2064 29.5198 15.4736C28.904 14.8586 28.0685 14.5301 27.1085 14.4964C26.48 14.4746 25.7915 14.5834 25.0873 14.8181C25.6528 16.0751 26 17.5991 26 19.2499C26 21.2779 25.4757 23.1139 24.6665 24.4999ZM11.75 27.1249C11.75 27.7459 12.2795 28.2499 12.9335 28.2499H27.0665C27.7198 28.2499 28.25 27.7459 28.25 27.1249C28.25 26.5039 27.7198 25.9999 27.0665 25.9999H12.9335C12.2795 25.9999 11.75 26.5039 11.75 27.1249Z" fill="white"/>
</g>
<defs>
<clipPath id="clip0_202_3585">
<rect width="24" height="24" fill="white" transform="translate(8 8)"/>
</clipPath>
</defs>
</svg>
