<svg width="40" height="40" viewBox="0 0 40 40" fill="none" xmlns="http://www.w3.org/2000/svg">
<g clip-path="url(#clip0_202_3582)">
<path d="M24.674 9.48186L9.48186 24.6762C9.17316 24.9867 9.00008 25.4069 9.00049 25.8448C9.0009 26.2827 9.17478 26.7026 9.48406 27.0126L12.9876 30.5183C13.2977 30.8273 13.7175 31.001 14.1553 31.0014C14.5931 31.0018 15.0133 30.8289 15.324 30.5205L30.5183 15.3262C30.8268 15.0154 30.9999 14.5953 30.9999 14.1574C30.9999 13.7195 30.8268 13.2994 30.5183 12.9887L27.0137 9.48186C26.7026 9.1732 26.2821 9 25.8438 9C25.4056 9 24.9851 9.1732 24.674 9.48186ZM13.322 25.8433L12.4871 26.6782L10.4015 24.5915L11.2364 23.7566L13.322 25.8433ZM16.6616 25.8433L15.8267 26.6782L12.0702 22.9217L12.9051 22.0857L16.6616 25.8433ZM16.6616 22.5037L15.8267 23.3386L13.7389 21.253L14.5749 20.417L16.6616 22.5037ZM18.3314 20.8339L17.4965 21.6688L15.4109 19.5832L16.2458 18.7472L18.3314 20.8339ZM21.6699 20.8339L20.835 21.6688L17.0796 17.9134L17.9145 17.0785L21.6699 20.8339ZM21.6699 17.4954L20.835 18.3303L18.7494 16.2447L19.5843 15.4098L21.6699 17.4954ZM23.3397 15.8267L22.5048 16.6616L20.4181 14.5749L21.253 13.74L23.3397 15.8267ZM26.6793 15.8267L25.8433 16.6616L22.0879 12.9051L22.9228 12.0691L26.6793 15.8267ZM26.6782 12.4882L25.8433 13.3231L23.7577 11.2353L24.5926 10.4015L26.6782 12.4882Z" fill="white"/>
</g>
<defs>
<clipPath id="clip0_202_3582">
<rect width="22" height="22" fill="white" transform="translate(9 9)"/>
</clipPath>
</defs>
</svg>
