<svg width="40" height="40" viewBox="0 0 40 40" fill="none" xmlns="http://www.w3.org/2000/svg">
<path d="M9.001 9H31V12H9.001V9ZM10.5009 10C10.3683 10 10.2412 10.0527 10.1474 10.1464C10.0536 10.2402 10.001 10.3674 10.001 10.5C10.001 10.6326 10.0536 10.7598 10.1474 10.8536C10.2412 10.9473 10.3683 11 10.5009 11C10.6335 11 10.7607 10.9473 10.8545 10.8536C10.9482 10.7598 11.0009 10.6326 11.0009 10.5C11.0009 10.3674 10.9482 10.2402 10.8545 10.1464C10.7607 10.0527 10.6335 10 10.5009 10ZM12.5008 10C12.3682 10 12.2411 10.0527 12.1473 10.1464C12.0535 10.2402 12.0009 10.3674 12.0009 10.5C12.0009 10.6326 12.0535 10.7598 12.1473 10.8536C12.2411 10.9473 12.3682 11 12.5008 11C12.6334 11 12.7606 10.9473 12.8544 10.8536C12.9481 10.7598 13.0008 10.6326 13.0008 10.5C13.0008 10.3674 12.9481 10.2402 12.8544 10.1464C12.7606 10.0527 12.6334 10 12.5008 10ZM14.5008 10C14.3681 10 14.241 10.0527 14.1472 10.1464C14.0534 10.2402 14.0008 10.3674 14.0008 10.5C14.0008 10.6326 14.0534 10.7598 14.1472 10.8536C14.241 10.9473 14.3681 11 14.5008 11C14.6334 11 14.7605 10.9473 14.8543 10.8536C14.9481 10.7598 15.0007 10.6326 15.0007 10.5C15.0007 10.3674 14.9481 10.2402 14.8543 10.1464C14.7605 10.0527 14.6334 10 14.5008 10ZM9.001 13H31V31H30.688L28.2501 28.562C28.0938 28.4054 27.8983 28.2938 27.6839 28.2389C27.4696 28.184 27.2445 28.1879 27.0322 28.25L25.5622 26.812C27.5562 24.447 27.4522 20.952 25.2503 18.75C22.9244 16.424 19.1365 16.427 16.7826 18.781C14.4278 21.136 14.3938 24.955 16.7196 27.281C16.7996 27.362 16.8856 27.425 16.9696 27.5H15.0007C14.949 27.4918 14.8964 27.4918 14.8447 27.5C14.7418 27.5362 14.6531 27.6041 14.5913 27.6939C14.5294 27.7838 14.4978 27.891 14.5008 28V30C14.5008 30.262 14.7387 30.5 15.0007 30.5H17.0006C17.1317 30.4951 17.256 30.4408 17.3487 30.3481C17.4414 30.2553 17.4957 30.131 17.5006 30V28C17.4918 27.9783 17.4814 27.9572 17.4696 27.937C17.7946 28.167 18.1446 28.344 18.5006 28.5V30C18.5006 30.262 18.7386 30.5 19.0005 30.5H21.0005C21.1315 30.4951 21.2558 30.4408 21.3485 30.3481C21.4412 30.2553 21.4955 30.131 21.5004 30V28.969C21.8414 28.934 22.1674 28.843 22.5004 28.75V30C22.5004 30.262 22.7384 30.5 23.0004 30.5H25.0003C25.1313 30.4951 25.2556 30.4408 25.3483 30.3481C25.441 30.2553 25.4953 30.131 25.5002 30V28.219L26.2502 28.969C26.0882 29.402 26.2032 29.925 26.5322 30.25L27.2822 31H9L9.001 13ZM21.0325 18C21.6867 17.9941 22.3356 18.1182 22.9415 18.3651C23.5475 18.6119 24.0984 18.9766 24.5623 19.438C26.0682 20.942 26.3592 23.185 25.5002 25.031V23C25.4953 22.869 25.441 22.7447 25.3483 22.6519C25.2556 22.5592 25.1313 22.5049 25.0003 22.5H23.0004C22.9487 22.4918 22.896 22.4918 22.8444 22.5C22.7415 22.5362 22.6527 22.6041 22.5909 22.6939C22.5291 22.7838 22.4974 22.891 22.5004 23V27.719C22.1704 27.832 21.8424 27.895 21.5004 27.937V21C21.4955 20.869 21.4412 20.7447 21.3485 20.6519C21.2558 20.5592 21.1315 20.5049 21.0005 20.5H19.0005C18.9489 20.4918 18.8962 20.4918 18.8446 20.5C18.7417 20.5362 18.6529 20.6041 18.5911 20.6939C18.5293 20.7838 18.4976 20.891 18.5006 21V27.375C18.1136 27.16 17.7356 26.923 17.4066 26.594C15.4697 24.656 15.5227 21.478 17.5006 19.5C18.4906 18.51 19.7545 18.006 21.0325 18ZM19.5005 21.5H20.5005V27.969C20.1615 27.9414 19.8264 27.8784 19.5005 27.781V21.5ZM23.5003 23.5H24.5003V26.5C24.2003 26.8 23.8453 27.04 23.5003 27.25V23.5ZM10.8449 24.5C10.742 24.5362 10.6533 24.6041 10.5915 24.6939C10.5296 24.7838 10.4979 24.891 10.5009 25V30C10.5009 30.262 10.7389 30.5 11.0009 30.5H13.0008C13.1318 30.4951 13.2562 30.4408 13.3489 30.3481C13.4416 30.2553 13.4958 30.131 13.5008 30V25C13.4958 24.869 13.4416 24.7447 13.3489 24.6519C13.2562 24.5592 13.1318 24.5049 13.0008 24.5H11.0009C10.9492 24.4918 10.8966 24.4918 10.8449 24.5ZM11.5009 25.5H12.5008V29.5H11.5009V25.5ZM24.5003 27.813V29.5H23.5003V28.406C23.8503 28.24 24.1813 28.048 24.5003 27.813ZM15.5007 28.5H16.5007V29.5H15.5007V28.5ZM19.5005 28.844C19.8325 28.923 20.1605 28.948 20.5005 28.969V29.5H19.5005V28.844Z" fill="white"/>
</svg>
