<svg width="41" height="40" viewBox="0 0 41 40" fill="none" xmlns="http://www.w3.org/2000/svg">
<g clip-path="url(#clip0_202_3618)">
<path d="M13.579 7.91602H5.42067C5.28696 7.91602 5.15872 7.96913 5.06417 8.06368C4.96962 8.15823 4.9165 8.28647 4.9165 8.42018V16.5785C4.9165 16.6447 4.92954 16.7103 4.95488 16.7715C4.98022 16.8326 5.01735 16.8882 5.06417 16.935C5.11099 16.9818 5.16657 17.019 5.22773 17.0443C5.2889 17.0696 5.35446 17.0827 5.42067 17.0827H9.8115V13.5306H8.61984V12.1556H9.8115V11.1243C9.78682 10.8822 9.8154 10.6377 9.89525 10.4078C9.9751 10.1779 10.1043 9.96822 10.2737 9.79354C10.4432 9.61885 10.6488 9.48335 10.8761 9.39654C11.1035 9.30973 11.3471 9.27371 11.5898 9.29102C11.9466 9.28882 12.3031 9.30718 12.6578 9.34602V10.5835H11.929C11.3515 10.5835 11.2415 10.8585 11.2415 11.2573V12.1418H12.6165L12.4378 13.5168H11.2415V17.0827H13.579C13.6452 17.0827 13.7108 17.0696 13.7719 17.0443C13.8331 17.019 13.8887 16.9818 13.9355 16.935C13.9823 16.8882 14.0195 16.8326 14.0448 16.7715C14.0701 16.7103 14.0832 16.6447 14.0832 16.5785V8.42018C14.0832 8.35397 14.0701 8.28841 14.0448 8.22725C14.0195 8.16608 13.9823 8.1105 13.9355 8.06368C13.8887 8.01687 13.8331 7.97973 13.7719 7.95439C13.7108 7.92906 13.6452 7.91602 13.579 7.91602Z" fill="white"/>
</g>
<g clip-path="url(#clip1_202_3618)">
<path d="M31.6055 13.7617H20.3945C18.3125 13.7617 16.625 15.4492 16.625 17.5312V28.4688C16.625 30.5508 18.3125 32.2383 20.3945 32.2383H31.6055C33.6875 32.2383 35.375 30.5508 35.375 28.4688V17.5312C35.375 15.4492 33.6875 13.7617 31.6055 13.7617ZM26 27.4141C23.5625 27.4141 21.5859 25.4375 21.5859 23C21.5859 20.5625 23.5625 18.5859 26 18.5859C28.4375 18.5859 30.4141 20.5625 30.4141 23C30.4141 25.4375 28.4375 27.4141 26 27.4141ZM31.6914 18.4727C31.1719 18.4727 30.75 18.0508 30.75 17.5312C30.75 17.0117 31.1719 16.5898 31.6914 16.5898C32.2109 16.5898 32.6328 17.0117 32.6328 17.5312C32.6328 18.0508 32.2109 18.4727 31.6914 18.4727Z" fill="white"/>
</g>
<defs>
<clipPath id="clip0_202_3618">
<rect width="11" height="11" fill="white" transform="translate(4 7)"/>
</clipPath>
<clipPath id="clip1_202_3618">
<rect width="20" height="20" fill="white" transform="translate(16 13)"/>
</clipPath>
</defs>
</svg>
