<svg width="1017" height="560" viewBox="0 0 1017 560" fill="none" xmlns="http://www.w3.org/2000/svg">
<path d="M148.992 270.427C159.258 270.427 169.801 267.642 178.957 262.35L290.771 197.734C295.21 195.227 297.984 190.492 297.984 185.2C297.984 179.909 295.21 175.174 290.771 172.667L178.957 108.051C160.368 97.1887 137.339 97.1887 119.028 108.051L7.21423 172.667C2.77499 175.174 0.000457764 179.909 0.000457764 185.2C0.000457764 190.492 2.77499 195.227 7.21423 197.734L119.028 262.35C128.183 267.642 138.727 270.427 148.992 270.427ZM176.46 257.894C159.536 267.642 138.449 267.642 121.525 257.894L9.7113 193.277C6.93677 191.606 4.99457 188.543 4.99457 185.2C4.99457 181.858 6.65933 178.794 9.7113 177.123L121.525 112.507C138.449 102.759 159.536 102.759 176.46 112.507L288.274 177.123C291.048 178.794 292.99 181.858 292.99 185.2C292.99 188.543 291.326 191.606 288.274 193.277L176.46 257.894Z" fill="url(#paint0_linear_48_6203)"/>
<path d="M616.811 168.427L545.384 209.838C541.215 212.34 534.545 212.34 530.376 209.838C526.207 207.337 526.207 203.724 530.376 201.223L601.803 159.812C605.972 157.31 612.642 157.31 616.811 159.812C620.98 162.035 620.98 165.926 616.811 168.427Z" fill="#E8975B"/>
<path opacity="0.6" d="M648.217 177.876C652.386 180.377 652.386 183.99 648.217 186.492L538.158 250.137C533.989 252.638 527.319 252.638 523.15 250.137C518.981 247.636 518.981 244.023 523.15 241.521L633.209 177.876C637.378 175.375 644.048 175.375 648.217 177.876Z" fill="#E8975B"/>
<path d="M679.622 204.558L657.666 217.343C653.497 219.844 646.826 219.844 642.658 217.343C638.489 214.841 638.489 211.228 642.658 208.727L664.614 195.942C668.783 193.441 675.453 193.441 679.622 195.942C683.513 198.166 683.513 202.057 679.622 204.558Z" fill="#E8975B"/>
<path d="M710.75 222.625L648.495 258.477C644.326 260.978 637.656 260.978 633.487 258.477C629.318 255.976 629.318 252.363 633.487 249.861L695.742 214.009C699.911 211.507 706.581 211.507 710.75 214.009C714.919 216.51 714.919 220.123 710.75 222.625Z" fill="#E82B88"/>
<path d="M552.888 269.04C548.719 266.538 548.719 262.925 552.888 260.424L615.144 224.571C619.313 222.07 625.983 222.07 630.152 224.571C634.321 227.073 634.321 230.686 630.152 233.187L567.896 269.04C563.727 271.263 557.057 271.263 552.888 269.04Z" fill="#E8975B"/>
<path opacity="0.6" d="M504.25 288.492L507.863 286.269L525.65 275.985C529.819 273.484 536.49 273.484 540.658 275.985C544.827 278.487 544.827 282.1 540.658 284.601L522.871 294.884L519.258 297.108L501.471 307.391C497.302 309.892 490.632 309.892 486.463 307.391C482.294 304.89 482.294 301.277 486.463 298.775L504.25 288.492Z" fill="#E8975B"/>
<path d="M171.294 4.72225C167.681 2.49883 161.567 2.49883 157.954 4.72225L151.283 8.61322C147.67 10.8366 147.67 14.1718 151.283 16.3952C154.897 18.6186 161.011 18.6186 164.624 16.3952L171.294 12.5042C174.907 10.2808 174.907 6.94566 171.294 4.72225Z" fill="#E8975B"/>
<path d="M233.271 1.66756C229.658 -0.555853 223.543 -0.555853 219.93 1.66756L179.909 24.7355C176.296 26.9589 176.296 30.294 179.909 32.5174C183.522 34.7408 189.636 34.7408 193.249 32.5174L233.271 9.44951C236.884 7.2261 236.884 3.89097 233.271 1.66756Z" fill="#E8975B"/>
<path d="M356.948 94.4937C353.335 92.2703 347.221 92.2703 343.608 94.4937L321.93 107C318.317 109.224 318.317 112.559 321.93 114.782C325.543 117.006 331.657 117.006 335.27 114.782L356.948 102.276C360.561 100.052 360.561 96.7171 356.948 94.4937Z" fill="#E8975B"/>
<path opacity="0.4" d="M325.821 79.7633C322.208 77.5399 316.094 77.5399 312.481 79.7633L293.582 90.6024C289.969 92.8258 289.969 96.161 293.582 98.3844C297.195 100.608 303.309 100.608 306.923 98.3844L325.821 87.5452C329.435 85.0439 329.435 81.7087 325.821 79.7633Z" fill="#E8975B"/>
<path opacity="0.4" d="M365.009 24.1773C361.396 21.9539 355.282 21.9539 351.669 24.1773L265.233 74.2041C261.62 76.4275 261.62 79.7626 265.233 81.986C268.846 84.2094 274.961 84.2094 278.574 81.986L365.009 31.9593C368.622 29.7359 368.622 26.1228 365.009 24.1773Z" fill="#E8975B"/>
<path d="M281.632 39.4644C278.019 37.241 271.905 37.241 268.292 39.4644L236.608 57.8076C232.995 60.031 232.995 63.3661 236.608 65.5895C240.221 67.813 246.335 67.813 249.948 65.5895L281.632 47.2464C285.245 45.023 285.245 41.6878 281.632 39.4644Z" fill="#E8975B"/>
<path d="M240.498 30.2965C236.885 28.0731 230.77 28.0731 227.157 30.2965L208.258 41.1356C204.645 43.359 204.645 46.6941 208.258 48.9175C211.871 51.1409 217.986 51.1409 221.599 48.9175L240.498 38.0784C244.389 35.855 244.389 32.5199 240.498 30.2965Z" fill="#E8975B"/>
<path d="M341.942 103.109C338.329 100.886 332.214 100.886 328.601 103.109L321.931 107C318.318 109.223 318.318 112.558 321.931 114.782C325.544 117.005 331.658 117.005 335.271 114.782L341.942 110.891C345.555 108.668 345.555 105.332 341.942 103.109Z" fill="#E8975B"/>
<path opacity="0.4" d="M450.333 73.3746C446.72 71.1512 440.606 71.1512 436.993 73.3746L350.558 123.401C346.944 125.625 346.944 128.96 350.558 131.183C354.171 133.407 360.285 133.407 363.898 131.183L450.333 81.1565C453.946 78.9331 453.946 75.3201 450.333 73.3746Z" fill="#E8975B"/>
<path d="M457.558 102.003C453.945 99.7801 447.83 99.7801 444.217 102.003L378.905 139.802C375.292 142.025 375.292 145.36 378.905 147.583C382.518 149.807 388.632 149.807 392.245 147.583L457.558 109.785C461.171 107.562 461.171 103.949 457.558 102.003Z" fill="#E8975B"/>
<path d="M333.878 230.123C334.989 227.066 336.657 223.731 338.046 220.674C339.158 231.513 343.605 242.352 348.886 253.191C348.052 260.139 348.052 267.365 349.163 274.314L361.67 278.76L395.855 312.39L441.435 335.735L493.963 354.079L555.385 364.918H607.913L669.891 353.523L741.318 335.735L798.293 295.992L820.527 276.259C821.361 271.812 821.639 267.643 821.639 263.197C827.197 251.802 830.81 239.017 834.423 226.232C835.257 227.9 835.813 229.567 836.369 230.957L842.205 220.674V265.142C841.093 302.384 816.08 339.07 766.887 367.419C666.278 425.506 503.413 425.506 402.803 367.419C352.221 338.237 327.207 299.883 327.485 261.807V220.674L333.878 230.123Z" fill="url(#paint1_radial_48_6203)"/>
<path d="M752.435 165.926C659.886 112.564 510.083 112.564 417.534 165.926C375.567 190.106 352.499 221.233 348.886 253.195C343.605 242.356 339.437 231.517 338.047 220.678C340.548 215.675 343.605 210.672 347.219 205.67L339.714 205.114L376.401 140.913L483.958 89.2184L580.955 77.2676L663.777 87.5508L716.305 97.5562L758.828 117.289L803.018 149.528L824.974 192.607L827.753 212.062C830.533 216.509 833.034 221.233 834.979 225.958C831.366 239.021 827.753 251.527 822.195 262.922C822.195 228.182 799.127 192.885 752.435 165.926Z" fill="url(#paint2_radial_48_6203)"/>
<path opacity="0.5" d="M585.123 373.812C454.345 373.812 348.329 312.591 348.329 237.072C348.329 161.553 454.345 100.332 585.123 100.332C715.9 100.332 821.916 161.553 821.916 237.072C821.916 312.591 715.9 373.812 585.123 373.812Z" fill="url(#paint3_radial_48_6203)"/>
<path d="M403.082 115.897C503.692 57.8104 666.557 57.8104 767.166 115.897C867.775 173.984 867.775 268.201 767.166 326.009C666.557 383.818 503.692 384.096 403.082 326.009C302.473 268.201 302.473 173.984 403.082 115.897ZM417.535 317.672C510.084 371.034 659.886 371.034 752.436 317.672C844.985 264.31 844.985 177.597 752.436 124.235C659.886 70.8729 510.084 70.8729 417.535 124.235C324.985 177.597 324.985 264.31 417.535 317.672Z" fill="url(#paint4_radial_48_6203)"/>
<path opacity="0.3" d="M752.437 148.973C793.292 172.596 816.082 202.612 820.807 233.462C816.082 264.312 793.292 294.328 752.437 317.952C659.887 371.314 510.085 371.314 417.535 317.952C376.68 294.328 353.89 264.312 349.165 233.462C353.89 202.612 376.68 172.596 417.535 148.973C510.085 95.6107 659.887 95.6107 752.437 148.973Z" fill="url(#paint5_radial_48_6203)"/>
<path d="M92.36 559.188C95.1393 559.188 97.9186 558.632 100.142 556.965L421.147 371.588C428.651 367.141 431.43 357.414 426.983 349.91C422.537 342.406 412.809 339.626 405.305 344.073L84.3001 529.45C76.7961 533.897 74.0168 543.624 78.4637 551.128C81.5208 556.131 86.8015 559.188 92.36 559.188Z" fill="url(#paint6_radial_48_6203)"/>
<path opacity="0.6" d="M405.304 344.073C412.808 339.626 422.536 342.406 426.982 349.91C431.429 357.414 428.65 367.141 421.146 371.588L398.078 384.928C398.078 384.928 406.416 363.528 381.68 357.692L405.304 344.073Z" fill="#020230"/>
<path d="M883.063 325.457C879.45 323.233 873.613 323.233 869.722 325.457L783.565 375.205C779.952 377.429 779.952 380.764 783.565 382.709C787.178 384.933 793.015 384.933 796.905 382.709L883.063 332.961C886.676 331.015 886.676 327.402 883.063 325.457Z" fill="#E8975B"/>
<path d="M1006.18 417.724C1002.57 415.501 996.734 415.501 992.843 417.724L925.029 456.912C921.416 459.135 921.416 462.47 925.029 464.416C928.642 466.639 934.479 466.639 938.37 464.416L1006.18 425.228C1009.8 423.283 1009.8 419.948 1006.18 417.724Z" fill="#E8975B"/>
<path opacity="0.5" d="M928.92 429.677C925.307 427.454 919.471 427.454 915.58 429.677L896.681 440.517C893.068 442.74 893.068 446.075 896.681 448.02C900.294 450.244 906.13 450.244 910.021 448.02L928.92 437.181C932.533 435.236 932.533 431.901 928.92 429.677Z" fill="#E8975B"/>
<path d="M921.693 401.332C918.08 399.108 912.243 399.108 908.352 401.332L868.331 424.399C864.718 426.623 864.718 429.958 868.331 431.904C871.944 434.127 877.78 434.127 881.671 431.904L921.693 408.836C925.306 406.89 925.306 403.277 921.693 401.332Z" fill="#E8975B"/>
<path d="M884.729 389.935C881.116 387.712 875.28 387.712 871.389 389.935L839.983 408C836.37 410.224 836.37 413.559 839.983 415.504C843.596 417.728 849.433 417.728 853.324 415.504L884.729 397.439C888.62 395.216 888.62 391.881 884.729 389.935Z" fill="#E8975B"/>
<path opacity="0.5" d="M890.288 354.086C886.675 351.862 880.839 351.862 876.948 354.086L811.913 391.884C808.3 394.107 808.3 397.442 811.913 399.388C815.526 401.611 821.363 401.611 825.253 399.388L890.288 361.589C893.901 359.366 893.901 356.031 890.288 354.086Z" fill="#E82B88"/>
<path d="M991.175 426.345C987.562 424.122 935.311 451.081 931.698 453.026L925.306 456.917C921.693 459.14 921.693 462.475 925.306 464.421C928.919 466.644 934.756 466.644 938.647 464.421L945.039 460.53C948.374 458.862 994.788 428.568 991.175 426.345Z" fill="#E8975B"/>
<path d="M1006.74 450.248C1003.13 448.024 997.29 448.024 993.399 450.248L953.378 473.316C949.765 475.539 949.765 478.874 953.378 480.82C956.991 483.043 962.827 483.043 966.718 480.82L1006.74 457.752C1010.35 455.806 1010.35 452.471 1006.74 450.248Z" fill="#E8975B"/>
<path d="M1013.96 478.877C1010.35 476.653 1004.51 476.653 1000.62 478.877L981.725 489.716C978.112 491.939 978.112 495.274 981.725 497.22C985.338 499.443 991.174 499.443 995.065 497.22L1013.96 486.381C1017.58 484.435 1017.58 481.1 1013.96 478.877Z" fill="#E8975B"/>
<path d="M149.614 146.749L91.5273 180.378C88.1922 182.324 82.6337 182.324 79.2985 180.378C75.9634 178.433 75.9634 175.376 79.2985 173.43L137.385 139.801C140.72 137.855 146.279 137.855 149.614 139.801C152.949 141.746 152.949 144.804 149.614 146.749Z" fill="#E8975B"/>
<path opacity="0.6" d="M174.907 154.531C178.242 156.477 178.242 159.534 174.907 161.48L125.436 190.106C122.101 192.051 116.542 192.051 113.207 190.106C109.872 188.16 109.872 185.103 113.207 183.158L162.678 154.531C166.013 152.586 171.572 152.586 174.907 154.531Z" fill="#E8975B"/>
<path d="M200.197 176.21L182.41 186.493C179.074 188.439 173.516 188.439 170.181 186.493C166.846 184.548 166.846 181.491 170.181 179.545L187.968 169.262C191.303 167.316 196.862 167.316 200.197 169.262C203.532 171.207 203.532 174.265 200.197 176.21Z" fill="#E8975B"/>
<path d="M225.766 190.94L175.184 220.123C171.849 222.068 166.29 222.068 162.955 220.123C159.62 218.177 159.62 215.12 162.955 213.175L213.537 183.992C216.873 182.047 222.431 182.047 225.766 183.992C229.101 185.938 229.101 188.995 225.766 190.94Z" fill="#E82B88"/>
<path d="M115.429 218.175C112.094 216.23 112.094 213.173 115.429 211.227L148.224 192.328C151.559 190.383 157.118 190.383 160.453 192.328C163.788 194.274 163.788 197.331 160.453 199.276L127.657 218.175C124.044 220.121 118.764 220.121 115.429 218.175Z" fill="#E8975B"/>
<mask id="mask0_48_6203" style="mask-type:alpha" maskUnits="userSpaceOnUse" x="0" y="0" width="1017" height="560">
<path d="M148.992 270.427C159.258 270.427 169.801 267.642 178.957 262.35L290.771 197.734C295.21 195.227 297.984 190.492 297.984 185.2C297.984 179.909 295.21 175.174 290.771 172.667L178.957 108.051C160.368 97.1887 137.339 97.1887 119.028 108.051L7.21423 172.667C2.77499 175.174 0.000457764 179.909 0.000457764 185.2C0.000457764 190.492 2.77499 195.227 7.21423 197.734L119.028 262.35C128.183 267.642 138.727 270.427 148.992 270.427ZM176.46 257.894C159.536 267.642 138.449 267.642 121.525 257.894L9.7113 193.277C6.93677 191.606 4.99457 188.543 4.99457 185.2C4.99457 181.858 6.65933 178.794 9.7113 177.123L121.525 112.507C138.449 102.759 159.536 102.759 176.46 112.507L288.274 177.123C291.048 178.794 292.99 181.858 292.99 185.2C292.99 188.543 291.326 191.606 288.274 193.277L176.46 257.894Z" fill="url(#paint7_linear_48_6203)"/>
<path d="M616.811 168.427L545.384 209.838C541.215 212.34 534.545 212.34 530.376 209.838C526.207 207.337 526.207 203.724 530.376 201.223L601.803 159.812C605.972 157.31 612.642 157.31 616.811 159.812C620.98 162.035 620.98 165.926 616.811 168.427Z" fill="#E8975B"/>
<path opacity="0.6" d="M648.217 177.876C652.386 180.377 652.386 183.99 648.217 186.492L538.158 250.137C533.989 252.638 527.319 252.638 523.15 250.137C518.981 247.636 518.981 244.023 523.15 241.521L633.209 177.876C637.378 175.375 644.048 175.375 648.217 177.876Z" fill="#E8975B"/>
<path d="M679.622 204.558L657.666 217.343C653.497 219.844 646.826 219.844 642.658 217.343C638.489 214.841 638.489 211.228 642.658 208.727L664.614 195.942C668.783 193.441 675.453 193.441 679.622 195.942C683.513 198.166 683.513 202.057 679.622 204.558Z" fill="#E8975B"/>
<path d="M710.75 222.625L648.495 258.477C644.326 260.978 637.656 260.978 633.487 258.477C629.318 255.976 629.318 252.363 633.487 249.861L695.742 214.009C699.911 211.507 706.581 211.507 710.75 214.009C714.919 216.51 714.919 220.123 710.75 222.625Z" fill="#E82B88"/>
<path d="M552.888 269.04C548.719 266.538 548.719 262.925 552.888 260.424L615.144 224.571C619.313 222.07 625.983 222.07 630.152 224.571C634.321 227.073 634.321 230.686 630.152 233.187L567.896 269.04C563.727 271.263 557.057 271.263 552.888 269.04Z" fill="#E8975B"/>
<path opacity="0.6" d="M504.25 288.492L507.863 286.269L525.65 275.985C529.819 273.484 536.49 273.484 540.658 275.985C544.827 278.487 544.827 282.1 540.658 284.601L522.871 294.884L519.258 297.108L501.471 307.391C497.302 309.892 490.632 309.892 486.463 307.391C482.294 304.89 482.294 301.277 486.463 298.775L504.25 288.492Z" fill="#E8975B"/>
<path d="M171.294 4.72225C167.681 2.49883 161.567 2.49883 157.954 4.72225L151.283 8.61322C147.67 10.8366 147.67 14.1718 151.283 16.3952C154.897 18.6186 161.011 18.6186 164.624 16.3952L171.294 12.5042C174.907 10.2808 174.907 6.94566 171.294 4.72225Z" fill="#E8975B"/>
<path d="M233.271 1.66756C229.658 -0.555853 223.543 -0.555853 219.93 1.66756L179.909 24.7355C176.296 26.9589 176.296 30.294 179.909 32.5174C183.522 34.7408 189.636 34.7408 193.249 32.5174L233.271 9.44951C236.884 7.2261 236.884 3.89097 233.271 1.66756Z" fill="#E8975B"/>
<path d="M356.948 94.4937C353.335 92.2703 347.221 92.2703 343.608 94.4937L321.93 107C318.317 109.224 318.317 112.559 321.93 114.782C325.543 117.006 331.657 117.006 335.27 114.782L356.948 102.276C360.561 100.052 360.561 96.7171 356.948 94.4937Z" fill="#E8975B"/>
<path opacity="0.4" d="M325.821 79.7633C322.208 77.5399 316.094 77.5399 312.481 79.7633L293.582 90.6024C289.969 92.8258 289.969 96.161 293.582 98.3844C297.195 100.608 303.309 100.608 306.923 98.3844L325.821 87.5452C329.435 85.0439 329.435 81.7087 325.821 79.7633Z" fill="#E8975B"/>
<path opacity="0.4" d="M365.009 24.1773C361.396 21.9539 355.282 21.9539 351.669 24.1773L265.233 74.2041C261.62 76.4275 261.62 79.7626 265.233 81.986C268.846 84.2094 274.961 84.2094 278.574 81.986L365.009 31.9593C368.622 29.7359 368.622 26.1228 365.009 24.1773Z" fill="#E8975B"/>
<path d="M281.632 39.4644C278.019 37.241 271.905 37.241 268.292 39.4644L236.608 57.8076C232.995 60.031 232.995 63.3661 236.608 65.5895C240.221 67.813 246.335 67.813 249.948 65.5895L281.632 47.2464C285.245 45.023 285.245 41.6878 281.632 39.4644Z" fill="#E8975B"/>
<path d="M240.498 30.2965C236.885 28.0731 230.77 28.0731 227.157 30.2965L208.258 41.1356C204.645 43.359 204.645 46.6941 208.258 48.9175C211.871 51.1409 217.986 51.1409 221.599 48.9175L240.498 38.0784C244.389 35.855 244.389 32.5199 240.498 30.2965Z" fill="#E8975B"/>
<path d="M341.942 103.109C338.329 100.886 332.214 100.886 328.601 103.109L321.931 107C318.318 109.223 318.318 112.558 321.931 114.782C325.544 117.005 331.658 117.005 335.271 114.782L341.942 110.891C345.555 108.668 345.555 105.332 341.942 103.109Z" fill="#E8975B"/>
<path opacity="0.4" d="M450.333 73.3746C446.72 71.1512 440.606 71.1512 436.993 73.3746L350.558 123.401C346.944 125.625 346.944 128.96 350.558 131.183C354.171 133.407 360.285 133.407 363.898 131.183L450.333 81.1565C453.946 78.9331 453.946 75.3201 450.333 73.3746Z" fill="#E8975B"/>
<path d="M457.558 102.003C453.945 99.7801 447.83 99.7801 444.217 102.003L378.905 139.802C375.292 142.025 375.292 145.36 378.905 147.583C382.518 149.807 388.632 149.807 392.245 147.583L457.558 109.785C461.171 107.562 461.171 103.949 457.558 102.003Z" fill="#E8975B"/>
<path d="M333.878 230.123C334.989 227.066 336.657 223.731 338.046 220.674C339.158 231.513 343.605 242.352 348.886 253.191C348.052 260.139 348.052 267.365 349.163 274.314L361.67 278.76L395.855 312.39L441.435 335.735L493.963 354.079L555.385 364.918H607.913L669.891 353.523L741.318 335.735L798.293 295.992L820.527 276.259C821.361 271.812 821.639 267.643 821.639 263.197C827.197 251.802 830.81 239.017 834.423 226.232C835.257 227.9 835.813 229.567 836.369 230.957L842.205 220.674V265.142C841.093 302.384 816.08 339.07 766.887 367.419C666.278 425.506 503.413 425.506 402.803 367.419C352.221 338.237 327.207 299.883 327.485 261.807V220.674L333.878 230.123Z" fill="url(#paint8_radial_48_6203)"/>
<path d="M752.435 165.926C659.886 112.564 510.083 112.564 417.534 165.926C375.567 190.106 352.499 221.233 348.886 253.195C343.605 242.356 339.437 231.517 338.047 220.678C340.548 215.675 343.605 210.672 347.219 205.67L339.714 205.114L376.401 140.913L483.958 89.2184L580.955 77.2676L663.777 87.5508L716.305 97.5562L758.828 117.289L803.018 149.528L824.974 192.607L827.753 212.062C830.533 216.509 833.034 221.233 834.979 225.958C831.366 239.021 827.753 251.527 822.195 262.922C822.195 228.182 799.127 192.885 752.435 165.926Z" fill="url(#paint9_radial_48_6203)"/>
<path opacity="0.5" d="M585.123 373.812C454.345 373.812 348.329 312.591 348.329 237.072C348.329 161.553 454.345 100.332 585.123 100.332C715.9 100.332 821.916 161.553 821.916 237.072C821.916 312.591 715.9 373.812 585.123 373.812Z" fill="url(#paint10_radial_48_6203)"/>
<path d="M403.082 115.897C503.692 57.8104 666.557 57.8104 767.166 115.897C867.775 173.984 867.775 268.201 767.166 326.009C666.557 383.818 503.692 384.096 403.082 326.009C302.473 268.201 302.473 173.984 403.082 115.897ZM417.535 317.672C510.084 371.034 659.886 371.034 752.436 317.672C844.985 264.31 844.985 177.597 752.436 124.235C659.886 70.8729 510.084 70.8729 417.535 124.235C324.985 177.597 324.985 264.31 417.535 317.672Z" fill="url(#paint11_radial_48_6203)"/>
<path opacity="0.3" d="M752.437 148.973C793.292 172.596 816.082 202.612 820.807 233.462C816.082 264.312 793.292 294.328 752.437 317.952C659.887 371.314 510.085 371.314 417.535 317.952C376.68 294.328 353.89 264.312 349.165 233.462C353.89 202.612 376.68 172.596 417.535 148.973C510.085 95.6107 659.887 95.6107 752.437 148.973Z" fill="url(#paint12_radial_48_6203)"/>
<path d="M92.36 559.188C95.1393 559.188 97.9186 558.632 100.142 556.965L421.147 371.588C428.651 367.141 431.43 357.414 426.983 349.91C422.537 342.406 412.809 339.626 405.305 344.073L84.3001 529.45C76.7961 533.897 74.0168 543.624 78.4637 551.128C81.5208 556.131 86.8015 559.188 92.36 559.188Z" fill="url(#paint13_radial_48_6203)"/>
<path opacity="0.6" d="M405.304 344.073C412.808 339.626 422.536 342.406 426.982 349.91C431.429 357.414 428.65 367.141 421.146 371.588L398.078 384.928C398.078 384.928 406.416 363.528 381.68 357.692L405.304 344.073Z" fill="#020230"/>
<path d="M883.063 325.457C879.45 323.233 873.613 323.233 869.722 325.457L783.565 375.205C779.952 377.429 779.952 380.764 783.565 382.709C787.178 384.933 793.015 384.933 796.905 382.709L883.063 332.961C886.676 331.015 886.676 327.402 883.063 325.457Z" fill="#E8975B"/>
<path d="M1006.18 417.724C1002.57 415.501 996.734 415.501 992.843 417.724L925.029 456.912C921.416 459.135 921.416 462.47 925.029 464.416C928.642 466.639 934.479 466.639 938.37 464.416L1006.18 425.228C1009.8 423.283 1009.8 419.948 1006.18 417.724Z" fill="#E8975B"/>
<path opacity="0.5" d="M928.92 429.677C925.307 427.454 919.471 427.454 915.58 429.677L896.681 440.517C893.068 442.74 893.068 446.075 896.681 448.02C900.294 450.244 906.13 450.244 910.021 448.02L928.92 437.181C932.533 435.236 932.533 431.901 928.92 429.677Z" fill="#E8975B"/>
<path d="M921.693 401.332C918.08 399.108 912.243 399.108 908.352 401.332L868.331 424.399C864.718 426.623 864.718 429.958 868.331 431.904C871.944 434.127 877.78 434.127 881.671 431.904L921.693 408.836C925.306 406.89 925.306 403.277 921.693 401.332Z" fill="#E8975B"/>
<path d="M884.729 389.935C881.116 387.712 875.28 387.712 871.389 389.935L839.983 408C836.37 410.224 836.37 413.559 839.983 415.504C843.596 417.728 849.433 417.728 853.324 415.504L884.729 397.439C888.62 395.216 888.62 391.881 884.729 389.935Z" fill="#E8975B"/>
<path opacity="0.5" d="M890.288 354.086C886.675 351.862 880.839 351.862 876.948 354.086L811.913 391.884C808.3 394.107 808.3 397.442 811.913 399.388C815.526 401.611 821.363 401.611 825.253 399.388L890.288 361.589C893.901 359.366 893.901 356.031 890.288 354.086Z" fill="#E82B88"/>
<path d="M991.175 426.345C987.562 424.122 935.311 451.081 931.698 453.026L925.306 456.917C921.693 459.14 921.693 462.475 925.306 464.421C928.919 466.644 934.756 466.644 938.647 464.421L945.039 460.53C948.374 458.862 994.788 428.568 991.175 426.345Z" fill="#E8975B"/>
<path d="M1006.74 450.248C1003.13 448.024 997.29 448.024 993.399 450.248L953.378 473.316C949.765 475.539 949.765 478.874 953.378 480.82C956.991 483.043 962.827 483.043 966.718 480.82L1006.74 457.752C1010.35 455.806 1010.35 452.471 1006.74 450.248Z" fill="#E8975B"/>
<path d="M1013.96 478.877C1010.35 476.653 1004.51 476.653 1000.62 478.877L981.725 489.716C978.112 491.939 978.112 495.274 981.725 497.22C985.338 499.443 991.174 499.443 995.065 497.22L1013.96 486.381C1017.58 484.435 1017.58 481.1 1013.96 478.877Z" fill="#E8975B"/>
<path d="M149.614 146.749L91.5273 180.378C88.1922 182.324 82.6337 182.324 79.2985 180.378C75.9634 178.433 75.9634 175.376 79.2985 173.43L137.385 139.801C140.72 137.855 146.279 137.855 149.614 139.801C152.949 141.746 152.949 144.804 149.614 146.749Z" fill="#E8975B"/>
<path opacity="0.6" d="M174.907 154.531C178.242 156.477 178.242 159.534 174.907 161.48L125.436 190.106C122.101 192.051 116.542 192.051 113.207 190.106C109.872 188.16 109.872 185.103 113.207 183.158L162.678 154.531C166.013 152.586 171.572 152.586 174.907 154.531Z" fill="#E8975B"/>
<path d="M200.197 176.21L182.41 186.493C179.074 188.439 173.516 188.439 170.181 186.493C166.846 184.548 166.846 181.491 170.181 179.545L187.968 169.262C191.303 167.316 196.862 167.316 200.197 169.262C203.532 171.207 203.532 174.265 200.197 176.21Z" fill="#E8975B"/>
<path d="M225.766 190.94L175.184 220.123C171.849 222.068 166.29 222.068 162.955 220.123C159.62 218.177 159.62 215.12 162.955 213.175L213.537 183.992C216.873 182.047 222.431 182.047 225.766 183.992C229.101 185.938 229.101 188.995 225.766 190.94Z" fill="#E82B88"/>
<path d="M115.429 218.175C112.094 216.23 112.094 213.173 115.429 211.227L148.224 192.328C151.559 190.383 157.118 190.383 160.453 192.328C163.788 194.274 163.788 197.331 160.453 199.276L127.657 218.175C124.044 220.121 118.764 220.121 115.429 218.175Z" fill="#E8975B"/>
</mask>
<g mask="url(#mask0_48_6203)">
<g style="mix-blend-mode:hue">
<rect x="-8.61328" y="-18.9453" width="1033.47" height="595.968" fill="#B061EE"/>
</g>
</g>
<defs>
<linearGradient id="paint0_linear_48_6203" x1="297.897" y1="185.103" x2="0.0795384" y2="185.103" gradientUnits="userSpaceOnUse">
<stop stop-color="#E39A65"/>
<stop offset="1" stop-color="#E95F8D"/>
</linearGradient>
<radialGradient id="paint1_radial_48_6203" cx="0" cy="0" r="1" gradientUnits="userSpaceOnUse" gradientTransform="translate(847.212 251.557) rotate(180) scale(534.007 534.006)">
<stop offset="0.00396825" stop-color="#4C02F1"/>
<stop offset="0.00816801" stop-color="#4B02EF"/>
<stop offset="0.1263" stop-color="#3903C4"/>
<stop offset="0.2487" stop-color="#29039E"/>
<stop offset="0.3765" stop-color="#1D0380"/>
<stop offset="0.5099" stop-color="#130468"/>
<stop offset="0.6513" stop-color="#0C0457"/>
<stop offset="0.8062" stop-color="#07044D"/>
<stop offset="1" stop-color="#06044A"/>
</radialGradient>
<radialGradient id="paint2_radial_48_6203" cx="0" cy="0" r="1" gradientUnits="userSpaceOnUse" gradientTransform="translate(405.037 292.804) rotate(180) scale(516.197 516.197)">
<stop offset="0.00396825" stop-color="#4C02F1"/>
<stop offset="0.00816801" stop-color="#4B02EF"/>
<stop offset="0.1263" stop-color="#3903C4"/>
<stop offset="0.2487" stop-color="#29039E"/>
<stop offset="0.3765" stop-color="#1D0380"/>
<stop offset="0.5099" stop-color="#130468"/>
<stop offset="0.6513" stop-color="#0C0457"/>
<stop offset="0.8062" stop-color="#07044D"/>
<stop offset="1" stop-color="#06044A"/>
</radialGradient>
<radialGradient id="paint3_radial_48_6203" cx="0" cy="0" r="1" gradientUnits="userSpaceOnUse" gradientTransform="translate(769.623 38.3244) rotate(180) scale(559.229 559.229)">
<stop stop-color="#E39A65"/>
<stop offset="0.4742" stop-color="#A92FFB"/>
<stop offset="0.5875" stop-color="#891CFB"/>
<stop offset="0.7262" stop-color="#6507FA"/>
<stop offset="1" stop-color="#3919BB"/>
</radialGradient>
<radialGradient id="paint4_radial_48_6203" cx="0" cy="0" r="1" gradientUnits="userSpaceOnUse" gradientTransform="translate(785.722 4.92988) rotate(180) scale(607.998 607.998)">
<stop stop-color="#E39A65"/>
<stop offset="0.4742" stop-color="#A92FFB"/>
<stop offset="0.5875" stop-color="#891CFB"/>
<stop offset="0.7262" stop-color="#6507FA"/>
<stop offset="1" stop-color="#3919BB"/>
</radialGradient>
<radialGradient id="paint5_radial_48_6203" cx="0" cy="0" r="1" gradientUnits="userSpaceOnUse" gradientTransform="translate(768.856 52.5185) rotate(180) scale(538.754 538.754)">
<stop stop-color="#E39A65"/>
<stop offset="0.4742" stop-color="#A92FFB"/>
<stop offset="0.5875" stop-color="#891CFB"/>
<stop offset="0.7262" stop-color="#6507FA"/>
<stop offset="1" stop-color="#3919BB"/>
</radialGradient>
<radialGradient id="paint6_radial_48_6203" cx="0" cy="0" r="1" gradientUnits="userSpaceOnUse" gradientTransform="translate(72.0244 554.256) rotate(180) scale(496.971 496.971)">
<stop stop-color="#E39A65"/>
<stop offset="0.4742" stop-color="#A92FFB"/>
<stop offset="0.5875" stop-color="#891CFB"/>
<stop offset="0.7262" stop-color="#6507FA"/>
<stop offset="1" stop-color="#3919BB"/>
</radialGradient>
<linearGradient id="paint7_linear_48_6203" x1="297.897" y1="185.103" x2="0.0795384" y2="185.103" gradientUnits="userSpaceOnUse">
<stop stop-color="#E39A65"/>
<stop offset="1" stop-color="#E95F8D"/>
</linearGradient>
<radialGradient id="paint8_radial_48_6203" cx="0" cy="0" r="1" gradientUnits="userSpaceOnUse" gradientTransform="translate(847.212 251.557) rotate(180) scale(534.007 534.006)">
<stop offset="0.00396825" stop-color="#4C02F1"/>
<stop offset="0.00816801" stop-color="#4B02EF"/>
<stop offset="0.1263" stop-color="#3903C4"/>
<stop offset="0.2487" stop-color="#29039E"/>
<stop offset="0.3765" stop-color="#1D0380"/>
<stop offset="0.5099" stop-color="#130468"/>
<stop offset="0.6513" stop-color="#0C0457"/>
<stop offset="0.8062" stop-color="#07044D"/>
<stop offset="1" stop-color="#06044A"/>
</radialGradient>
<radialGradient id="paint9_radial_48_6203" cx="0" cy="0" r="1" gradientUnits="userSpaceOnUse" gradientTransform="translate(405.037 292.804) rotate(180) scale(516.197 516.197)">
<stop offset="0.00396825" stop-color="#4C02F1"/>
<stop offset="0.00816801" stop-color="#4B02EF"/>
<stop offset="0.1263" stop-color="#3903C4"/>
<stop offset="0.2487" stop-color="#29039E"/>
<stop offset="0.3765" stop-color="#1D0380"/>
<stop offset="0.5099" stop-color="#130468"/>
<stop offset="0.6513" stop-color="#0C0457"/>
<stop offset="0.8062" stop-color="#07044D"/>
<stop offset="1" stop-color="#06044A"/>
</radialGradient>
<radialGradient id="paint10_radial_48_6203" cx="0" cy="0" r="1" gradientUnits="userSpaceOnUse" gradientTransform="translate(769.623 38.3244) rotate(180) scale(559.229 559.229)">
<stop stop-color="#E39A65"/>
<stop offset="0.4742" stop-color="#A92FFB"/>
<stop offset="0.5875" stop-color="#891CFB"/>
<stop offset="0.7262" stop-color="#6507FA"/>
<stop offset="1" stop-color="#3919BB"/>
</radialGradient>
<radialGradient id="paint11_radial_48_6203" cx="0" cy="0" r="1" gradientUnits="userSpaceOnUse" gradientTransform="translate(785.722 4.92988) rotate(180) scale(607.998 607.998)">
<stop stop-color="#E39A65"/>
<stop offset="0.4742" stop-color="#A92FFB"/>
<stop offset="0.5875" stop-color="#891CFB"/>
<stop offset="0.7262" stop-color="#6507FA"/>
<stop offset="1" stop-color="#3919BB"/>
</radialGradient>
<radialGradient id="paint12_radial_48_6203" cx="0" cy="0" r="1" gradientUnits="userSpaceOnUse" gradientTransform="translate(768.856 52.5185) rotate(180) scale(538.754 538.754)">
<stop stop-color="#E39A65"/>
<stop offset="0.4742" stop-color="#A92FFB"/>
<stop offset="0.5875" stop-color="#891CFB"/>
<stop offset="0.7262" stop-color="#6507FA"/>
<stop offset="1" stop-color="#3919BB"/>
</radialGradient>
<radialGradient id="paint13_radial_48_6203" cx="0" cy="0" r="1" gradientUnits="userSpaceOnUse" gradientTransform="translate(72.0244 554.256) rotate(180) scale(496.971 496.971)">
<stop stop-color="#E39A65"/>
<stop offset="0.4742" stop-color="#A92FFB"/>
<stop offset="0.5875" stop-color="#891CFB"/>
<stop offset="0.7262" stop-color="#6507FA"/>
<stop offset="1" stop-color="#3919BB"/>
</radialGradient>
</defs>
</svg>
