<svg width="100" height="100" viewBox="0 0 100 100" fill="none" xmlns="http://www.w3.org/2000/svg">
<g clip-path="url(#clip0_303_108)">
<path d="M28.5672 28.1633C28.4383 28.2492 28.2492 28.4383 28.1633 28.5672C28.0086 28.8078 28 29.3148 28 46.0898C28 62.8648 28.0086 63.3719 28.1633 63.6125C28.2492 63.7414 28.4383 63.9305 28.5672 64.0164C28.8078 64.1711 29.3922 64.1797 50 64.1797C70.6078 64.1797 71.1922 64.1711 71.4328 64.0164C71.5617 63.9305 71.7508 63.7414 71.8367 63.6125C71.9914 63.3719 72 62.8648 72 46.0898C72 29.3148 71.9914 28.8078 71.8367 28.5672C71.7508 28.4383 71.5617 28.2492 71.4328 28.1633C71.1922 28.0086 70.6078 28 50 28C29.3922 28 28.8078 28.0086 28.5672 28.1633ZM53.1797 33.4742C53.8156 33.8695 53.7812 33.5344 53.7812 39.6875C53.7812 45.8406 53.8156 45.5055 53.1797 45.9008L52.8789 46.0898H43.5547H34.2305L33.9297 45.9008C33.2938 45.5055 33.3281 45.8492 33.3281 39.6703C33.3281 34.4367 33.3367 34.1359 33.4914 33.9039C33.6891 33.6031 33.9641 33.4055 34.3078 33.3195C34.4539 33.2852 38.6906 33.268 43.7266 33.268L52.8789 33.2852L53.1797 33.4742ZM66.0703 33.4742C66.4656 33.7148 66.6719 34.0844 66.6719 34.5312C66.6719 34.9781 66.4656 35.3477 66.0703 35.5883C65.7695 35.7773 65.7352 35.7773 61.6016 35.7773C57.5883 35.7773 57.425 35.7687 57.15 35.6055C56.1703 35.0125 56.3938 33.5945 57.5109 33.3195C57.657 33.2852 59.5734 33.2594 61.7734 33.268C65.718 33.2852 65.7695 33.2852 66.0703 33.4742ZM66.0703 38.6133C66.2336 38.7164 66.4398 38.9227 66.5344 39.0773C66.8695 39.6531 66.6547 40.4094 66.0703 40.7617C65.7781 40.925 65.6406 40.9336 61.6016 40.9336C57.5883 40.9336 57.425 40.925 57.15 40.7617C56.1703 40.1687 56.3938 38.7508 57.5109 38.4758C57.657 38.4414 59.5734 38.4156 61.7734 38.4242C65.6234 38.4414 65.7781 38.45 66.0703 38.6133ZM66.0703 43.7695C66.2336 43.8727 66.4398 44.0789 66.5344 44.2336C66.8695 44.8094 66.6547 45.5656 66.0703 45.918C65.7781 46.0812 65.6406 46.0898 61.6016 46.0898C57.5883 46.0898 57.425 46.0812 57.15 45.918C56.1703 45.325 56.3938 43.907 57.5109 43.632C57.657 43.5977 59.5734 43.5719 61.7734 43.5805C65.6234 43.5977 65.7781 43.6062 66.0703 43.7695ZM48.0234 48.9258C48.1867 49.0289 48.393 49.2352 48.4961 49.3984C48.6594 49.6906 48.668 49.8281 48.668 53.8672C48.668 58.0008 48.668 58.0352 48.4789 58.3359C48.0836 58.9805 48.5734 58.9375 40.9594 58.9375C34.4281 58.9375 34.1359 58.9289 33.8953 58.7742C33.7664 58.6883 33.5773 58.4992 33.4914 58.3703C33.3367 58.1383 33.3281 57.8891 33.3281 53.8672V49.6133L33.543 49.2867C33.6633 49.1148 33.775 48.9688 33.7836 48.9688C33.7922 48.9688 33.9555 48.9086 34.1445 48.8398C34.4367 48.7367 35.5023 48.7195 41.1055 48.7367C47.5852 48.7539 47.7313 48.7539 48.0234 48.9258ZM66.0703 48.9258C66.2336 49.0289 66.4398 49.2352 66.543 49.3984C66.7062 49.6906 66.7148 49.8281 66.7148 53.8672C66.7148 58.0008 66.7148 58.0352 66.5258 58.3359C66.1305 58.9805 66.6203 58.9375 59.0063 58.9375C52.475 58.9375 52.1828 58.9289 51.9422 58.7742C51.8133 58.6883 51.6242 58.4992 51.5383 58.3703C51.3836 58.1383 51.375 57.8891 51.375 53.8672V49.6133L51.5898 49.2867C51.7102 49.1148 51.8219 48.9688 51.8305 48.9688C51.8391 48.9688 52.0023 48.9086 52.1914 48.8398C52.4836 48.7367 53.5492 48.7195 59.1523 48.7367C65.632 48.7539 65.7781 48.7539 66.0703 48.9258Z" fill="white"/>
<path d="M35.8203 39.6875V43.5547H43.5547H51.2891V39.6875V35.8203H43.5547H35.8203V39.6875Z" fill="white"/>
<path d="M35.8203 53.8242V56.4453H41.0195H46.2188L46.2016 53.8414L46.1758 51.2461L41.0023 51.2203L35.8203 51.2031V53.8242Z" fill="white"/>
<path d="M53.8672 53.8242V56.4453H59.0664H64.2656L64.2484 53.8414L64.2227 51.2461L59.0492 51.2203L53.8672 51.2031V53.8242Z" fill="white"/>
<path d="M43.5548 68.0898V69.4219H41.3978C39.3783 69.4219 39.215 69.4305 38.9572 69.5938C38.2181 70.0492 38.2095 71.3039 38.94 71.8109L39.2236 72H49.9915C59.6681 72 60.7853 71.9828 60.983 71.8625C61.3525 71.6477 61.5415 71.3211 61.5845 70.8398C61.6275 70.2812 61.4384 69.8344 61.0431 69.5938C60.7853 69.4305 60.622 69.4219 58.6025 69.4219H56.4454V68.0898V66.7578H50.0001H43.5548V68.0898Z" fill="white"/>
</g>
<defs>
<clipPath id="clip0_303_108">
<rect width="44" height="44" fill="white" transform="translate(28 28)"/>
</clipPath>
</defs>
</svg>
