<svg width="100" height="100" viewBox="0 0 100 100" fill="none" xmlns="http://www.w3.org/2000/svg">
<path d="M47.3524 17.1391C46.3277 17.2588 45.9152 17.4584 45.4362 18.0972C45.2499 18.3367 45.0636 19.1484 44.7842 20.8117C44.5713 22.1157 44.3717 23.2069 44.3584 23.2202C44.3451 23.2468 43.7463 23.4065 43.0277 23.5928C40.6325 24.2182 37.6519 25.4823 35.7889 26.6799L35.0837 27.119L33.2075 25.7884C32.1829 25.0432 31.1982 24.3779 31.0119 24.3113C30.5195 24.125 29.801 24.165 29.282 24.4045C28.7365 24.6706 25.6493 27.6114 24.8642 28.636C23.7864 30.0199 23.9062 30.6053 25.7026 33.107L27.0864 35.0364L26.7005 35.7018C25.33 38.0304 24.1989 40.6917 23.5868 43.0337C23.4005 43.7522 23.2275 44.351 23.2142 44.3643C23.1876 44.391 22.1098 44.5773 20.8057 44.8035C18.344 45.2027 18.0247 45.3224 17.4924 46.041C16.8271 46.9192 16.8404 53.1068 17.5057 53.985C18.0113 54.6769 18.344 54.7967 20.7924 55.2092C22.1098 55.4221 23.2009 55.6217 23.2142 55.6483C23.2275 55.6616 23.4005 56.2604 23.5868 56.979C24.2122 59.3742 25.4763 62.3548 26.6739 64.2178L27.1131 64.923L25.7824 66.7992C24.3187 68.8218 24.1856 69.0747 24.1856 69.7932C24.1856 70.6182 24.5981 71.1771 26.7272 73.3195C28.9094 75.5284 29.3352 75.8211 30.3465 75.8211C30.9986 75.8211 30.9986 75.8211 33.5268 73.9981L35.0837 72.8937L35.7889 73.3328C37.6519 74.5304 40.6325 75.7945 43.0277 76.4199C43.7463 76.6062 44.3451 76.7659 44.3584 76.7925C44.3717 76.8058 44.5713 77.8969 44.7842 79.201C45.1967 81.6494 45.3165 81.982 46.0217 82.501C46.8999 83.1663 53.1008 83.1663 53.979 82.501C54.6843 81.982 54.804 81.6494 55.2165 79.201C55.4295 77.8969 55.629 76.8058 55.6424 76.7925C55.6557 76.7659 56.2545 76.6062 56.973 76.4199C59.315 75.8078 61.9896 74.6767 64.3049 73.3062L64.9703 72.9203L66.3009 73.8783C68.8957 75.7546 69.0022 75.8211 69.6542 75.8211C69.9868 75.8211 70.4659 75.7146 70.732 75.5949C71.3707 75.3021 75.2962 71.3767 75.5889 70.738C75.8684 70.1525 75.8817 69.4339 75.6288 68.8618C75.5224 68.6222 74.8704 67.6509 74.1651 66.7061L72.9143 64.9762L73.3002 64.3109C74.6708 61.9823 75.8018 59.3076 76.4139 56.979C76.6002 56.2604 76.7599 55.6616 76.7865 55.6483C76.7998 55.635 77.8777 55.4487 79.195 55.2225C81.6434 54.81 81.9761 54.6903 82.495 53.985C83.1604 53.1068 83.1737 46.9192 82.5083 46.041C81.9761 45.3224 81.6567 45.2027 79.195 44.7902C77.8777 44.5773 76.7998 44.3777 76.7865 44.3643C76.7599 44.351 76.6002 43.7522 76.4139 43.0337C75.8018 40.6917 74.6708 38.0304 73.3002 35.7018L72.9143 35.0364L74.2982 33.107C75.1099 31.9892 75.722 31.0045 75.7619 30.7384C75.9881 29.5541 75.4958 28.7956 72.8744 26.2674C71.0913 24.5375 70.559 24.1916 69.7739 24.1916C69.0687 24.1916 68.6429 24.4311 66.7001 25.8416L64.9703 27.0924L64.3049 26.7065C61.9763 25.3359 59.3017 24.2049 56.973 23.5928C56.2545 23.4065 55.6557 23.2468 55.6424 23.2202C55.629 23.2069 55.4295 22.1157 55.2165 20.8117C54.804 18.3633 54.6843 18.0306 53.979 17.5117C53.3935 17.0725 49.9072 16.873 47.3524 17.1391ZM54.3117 27.7843C61.3642 29.288 67.086 33.6392 70.2264 39.8933C75.855 51.0975 71.2111 64.7766 59.9138 70.3122C53.6464 73.3727 46.6604 73.4126 40.2999 70.4186C32.449 66.7061 27.3792 58.7088 27.3792 50.0063C27.3792 46.3869 28.111 43.3664 29.7877 39.9599C30.9587 37.5647 32.1296 35.9546 34.0325 34.0384C37.5454 30.5255 41.87 28.3432 46.86 27.5848C48.6431 27.3053 52.5818 27.4118 54.3117 27.7843Z" fill="white"/>
<path d="M47.0066 29.7147C42.4425 30.4598 38.6368 32.376 35.5097 35.5163C32.5823 38.4438 30.5996 42.2228 29.8278 46.3479C29.4819 48.1975 29.4819 51.8169 29.8278 53.6665C31.398 62.1162 37.8916 68.6098 46.3413 70.18C48.1909 70.5259 51.8103 70.5259 53.6599 70.18C63.7729 68.2904 70.8653 59.4549 70.4395 49.2753C70.3996 48.1709 70.2532 46.7072 70.1069 46.0019C68.4701 37.8583 62.1628 31.551 54.0059 29.901C52.2627 29.5417 48.6433 29.4485 47.0066 29.7147ZM40.5929 42.6087C42.0034 43.2874 43.0812 44.9374 43.0812 46.3745C43.0812 47.3459 42.4026 47.8515 41.5509 47.5322C41.2715 47.4257 40.9521 46.787 40.9521 46.3213C40.9521 45.7491 40.4066 44.9241 39.8211 44.5914C38.6102 43.8995 37.0267 44.4317 36.4811 45.7092C36.2416 46.2547 36.215 53.6266 36.4412 54.2254C36.9336 55.5294 38.5969 56.1149 39.8211 55.423C40.4066 55.0903 40.9521 54.2653 40.9521 53.6931C40.9521 52.5488 42.0965 51.9633 42.8151 52.735C43.4804 53.4403 42.855 55.556 41.6707 56.6605C40.7126 57.5387 40.034 57.7915 38.6235 57.7915C37.5057 57.7915 37.3727 57.7649 36.5876 57.3391C35.6561 56.8335 34.9908 56.1149 34.5384 55.1169C34.2456 54.4782 34.2323 54.3584 34.2323 50.0072C34.2323 45.6826 34.2456 45.5362 34.5251 44.9108C35.1105 43.6333 35.9888 42.835 37.3327 42.3293C38.1311 42.0366 39.7146 42.1696 40.5929 42.6087ZM47.2595 42.4491C47.4857 42.662 47.9381 43.7265 48.7631 45.9088C49.4018 47.6519 49.9607 49.0757 50.0006 49.0757C50.0405 49.0757 50.5994 47.6519 51.2514 45.9088C52.0365 43.8063 52.5422 42.662 52.7551 42.4491C53.1809 42.0499 53.7265 42.0765 54.139 42.5023L54.4583 42.8483V50.0072V57.1661L54.139 57.5121C53.7398 57.9379 53.2208 57.9645 52.7418 57.5786L52.3958 57.3125V53.3205C52.3958 51.125 52.3426 49.3552 52.276 49.3951C52.2228 49.435 51.9035 50.1935 51.5841 51.085C50.9321 52.8681 50.6127 53.3338 50.0272 53.3338C49.3885 53.3338 49.1091 52.9613 48.4704 51.2048C48.1244 50.2866 47.7917 49.4882 47.7252 49.4217C47.6587 49.3419 47.6054 50.8189 47.6054 53.2939V57.3125L47.2595 57.5786C46.7804 57.9645 46.2615 57.9379 45.8623 57.5121L45.5429 57.1661V50.0072V42.8483L45.8623 42.5023C46.2615 42.0765 46.807 42.0499 47.2595 42.4491ZM63.427 42.6886C64.7576 43.4071 65.6358 44.7112 65.7955 46.2148C65.8621 46.8535 65.8354 46.96 65.5294 47.266C64.7709 48.0245 63.8128 47.5322 63.6532 46.308C63.4403 44.6713 61.6306 43.7664 60.1801 44.5914C59.1156 45.1902 58.7297 46.6672 59.3418 47.7717C59.7543 48.5036 60.3398 48.8229 61.5241 48.956C63.3471 49.1556 64.6378 50.0338 65.3963 51.5774C65.9153 52.6419 65.9286 54.1189 65.4229 55.2101C64.9838 56.1282 64.212 56.9266 63.2806 57.419C62.6685 57.7383 62.429 57.7915 61.3777 57.7915C60.3398 57.7915 60.087 57.7383 59.4217 57.419C57.9979 56.727 56.92 55.0903 56.92 53.6399C56.92 52.6685 57.5987 52.1629 58.4503 52.4822C58.7297 52.5887 59.0491 53.2274 59.0491 53.6931C59.0491 54.2653 59.5947 55.0903 60.1801 55.423C60.7922 55.7689 61.6306 55.8222 62.2826 55.5427C62.8415 55.3165 63.5201 54.5314 63.6399 53.9992C63.9326 52.6552 63.0544 51.3112 61.7769 51.1516C60.4197 50.9786 59.7277 50.779 59.0358 50.3665C56.7204 48.9826 56.2148 45.7358 57.9979 43.7132C58.9959 42.5688 60.0338 42.1297 61.5773 42.1962C62.4156 42.2362 62.7217 42.316 63.427 42.6886Z" fill="white"/>
</svg>
