<svg width="100" height="100" viewBox="0 0 100 100" fill="none" xmlns="http://www.w3.org/2000/svg">
<path d="M24.7163 34.2256V39.4512H49.721H74.7256V34.2256V29H49.721H24.7163V34.2256ZM34.6791 34.2256V35.6419H33.2628H31.8465V34.2256V32.8093H33.2628H34.6791V34.2256ZM40.8326 34.2256V35.6419H39.4163H38V34.2256V32.8093H39.4163H40.8326V34.2256ZM46.9861 34.2256V35.6419H45.5698H44.1535V34.2256V32.8093H45.5698H46.9861V34.2256Z" fill="white"/>
<path d="M24.7163 56.6419V71H49.721H74.7256V56.6419V42.2837H49.721H24.7163V56.6419ZM53.1005 47.9C52.9247 48.8474 49.047 66.1358 48.9982 66.1847C48.9298 66.2628 46.3024 65.6963 46.3024 65.5986C46.3024 65.5595 47.2303 61.3791 48.3535 56.3C49.4865 51.2209 50.4047 47.06 50.4047 47.0405C50.4047 47.0209 51.02 47.1381 51.7819 47.3042L53.1493 47.607L53.1005 47.9ZM42.1512 54.2L39.7093 56.6419L42.1512 59.0837L44.5931 61.5256L43.6163 62.5023L42.6396 63.4791L39.221 60.0605L35.8024 56.6419L39.221 53.2233L42.6396 49.8047L43.6163 50.7814L44.5931 51.7581L42.1512 54.2ZM60.221 60.0605L56.8024 63.4791L55.8256 62.5023L54.8489 61.5256L57.2907 59.0837L59.7326 56.6419L57.2907 54.2L54.8489 51.7581L55.8256 50.7814L56.8024 49.8047L60.221 53.2233L63.6396 56.6419L60.221 60.0605Z" fill="white"/>
</svg>
