<svg width="100" height="100" viewBox="0 0 100 100" fill="none" xmlns="http://www.w3.org/2000/svg">
<path d="M40.9336 23.1699C39.9451 23.5315 39.1736 24.2789 38.7517 25.3035C38.595 25.6893 38.0767 29.1369 38.0767 29.8361V30.1133H47.9976C56.5685 30.1133 58.015 30.1375 58.6298 30.3062C60.4621 30.7763 62.0534 32.3435 62.5717 34.1878C62.7766 34.9473 62.7887 35.8634 62.7887 52.5591C62.7887 64.457 62.8248 70.1348 62.9092 70.1348C62.9816 70.1348 63.2709 69.9178 63.5602 69.6526C64.6451 68.652 64.4402 69.9178 66.9958 48.9186C68.2615 38.5395 69.2982 29.7758 69.2982 29.4383C69.2982 28.5342 68.9848 27.7747 68.3218 27.0515C67.2971 25.9304 67.9119 26.0509 54.7362 24.4356C48.2628 23.6521 42.6213 23.0011 42.1873 23.0011C41.7533 23.0132 41.1868 23.0855 40.9336 23.1699Z" fill="white"/>
<path d="M32.4471 32.1377C31.6153 32.4391 30.8559 33.078 30.4219 33.8615L30.0603 34.5125L30.0241 54.3183L30 74.1361L30.3134 74.8473C30.5304 75.3175 30.8559 75.7635 31.2296 76.101C32.3024 77.0654 31.3863 77.0051 45.5505 77.0051H58.1717L58.907 76.6314C59.787 76.1975 60.4018 75.5224 60.7393 74.6304C60.9804 73.9794 60.9804 73.7865 60.9563 54.3062L60.9202 34.633L60.6309 34.0424C60.2572 33.2829 59.6183 32.644 58.8588 32.2703L58.2681 31.981L45.671 31.9569C33.8093 31.9328 33.0378 31.9449 32.4471 32.1377ZM47.5395 36.9355C47.6359 36.9837 47.8047 37.1645 47.9132 37.3574C48.082 37.6949 48.0217 37.936 46.3702 43.2039C45.4299 46.2296 44.562 48.8334 44.4294 48.9901C44.128 49.3759 43.5856 49.3759 43.1998 48.9781C43.0311 48.8214 42.8985 48.6164 42.8985 48.5441C42.8985 48.4597 43.6579 45.9162 44.5982 42.9025C45.9604 38.4905 46.3582 37.3574 46.5872 37.1283C46.8886 36.8631 47.1779 36.8029 47.5395 36.9355ZM41.247 39.4187C41.693 39.9491 41.5484 40.2384 40.0656 41.6609C39.3062 42.3962 38.6793 43.0351 38.6793 43.0954C38.6793 43.1436 39.3062 43.7825 40.0656 44.4937C41.6086 45.9403 41.7412 46.2296 41.1505 46.8082C40.584 47.3869 40.3067 47.2181 37.932 44.9156C36.6662 43.6981 36.389 43.3727 36.389 43.0833C36.389 42.8061 36.6542 42.4927 37.8717 41.3234C40.0174 39.262 40.3429 38.9968 40.7166 39.0933C40.8853 39.1294 41.1264 39.2741 41.247 39.4187ZM51.2403 39.5875C52.494 40.6845 54.4589 42.6614 54.5312 42.8905C54.5674 43.011 54.5312 43.2521 54.4468 43.4209C54.2057 43.8669 50.8545 46.989 50.5291 47.0734C50.083 47.1819 49.6009 46.76 49.5526 46.2417C49.5165 45.8559 49.6009 45.7354 50.9148 44.4817C51.6743 43.7343 52.3011 43.1075 52.3011 43.0833C52.3011 43.0472 50.9992 41.7694 49.8058 40.6362C49.408 40.2505 49.4321 39.6116 49.8419 39.2861C50.3121 38.9245 50.5291 38.9727 51.2403 39.5875ZM56.6287 55.5599C57.2797 55.7889 57.4484 56.464 56.9783 56.9582L56.7251 57.2355H45.659H34.5928L34.3517 56.9221C34.2071 56.7413 34.0986 56.5122 34.0986 56.4037C34.0986 56.1265 34.4361 55.6684 34.7495 55.5478C35.1473 55.3791 56.1586 55.4032 56.6287 55.5599ZM53.2052 62.8409C53.374 62.9976 53.5066 63.2749 53.5066 63.4436C53.5066 63.6124 53.374 63.8897 53.2052 64.0464L52.9159 64.3477H45.6951C38.6914 64.3477 38.4744 64.3357 38.2333 64.1066C37.8837 63.7932 37.7994 63.4436 37.9681 63.1182C38.2815 62.5275 38.0766 62.5516 45.7072 62.5395H52.9159L53.2052 62.8409ZM56.9662 69.917C57.5208 70.4353 57.1953 71.255 56.3756 71.3997C56.1586 71.4359 51.18 71.4479 45.3335 71.4359L34.6772 71.3997L34.3879 71.0622C34.0383 70.6523 34.0263 70.3871 34.3517 69.9652L34.5928 69.6518H45.6469H56.689L56.9662 69.917Z" fill="white"/>
</svg>
