<svg width="100" height="100" viewBox="0 0 100 100" fill="none" xmlns="http://www.w3.org/2000/svg">
<path d="M45.693 16.116C45.1352 16.3117 44.8612 16.527 44.5578 16.9772L44.2936 17.3882L44.2642 22.9959L44.2446 28.6035H50.5569H56.8789L56.8496 23.0448L56.8202 17.4959L56.5462 17.0359C56.37 16.7326 56.1156 16.4781 55.8122 16.3019L55.3523 16.0279L50.7037 16.0084C46.9946 15.9888 45.9768 16.0084 45.693 16.116Z" fill="white"/>
<path d="M44.2446 36.1197V41.5806L44.4893 42.0797C44.6459 42.3928 44.8905 42.6767 45.145 42.8528L45.5462 43.1366L51.2126 43.166L56.8692 43.1855V36.9222V30.6589H50.5569H44.2446V36.1197Z" fill="white"/>
<path d="M58.8267 36.9222V43.1855H65.1389H71.4512V37.7247V32.2639L71.2065 31.7648C71.0499 31.4516 70.8053 31.1678 70.5508 30.9916L70.1496 30.7078L64.4832 30.6785L58.8267 30.6589V36.9222Z" fill="white"/>
<path d="M58.8458 50.7878L58.8751 56.3465L59.1491 56.8064C59.3253 57.1098 59.5797 57.3643 59.8831 57.5404L60.3431 57.8145H65.1385H69.9338L70.3742 57.5698C70.6091 57.4328 70.9418 57.1294 71.1082 56.9043L71.4018 56.4737L71.4311 50.8563L71.4507 45.2389H65.1385H58.8164L58.8458 50.7878Z" fill="white"/>
<path d="M23.1145 58.6808C23.3103 58.123 23.5256 57.849 23.9757 57.5456L24.3868 57.2814L29.9944 57.252L35.6021 57.2324L35.6021 63.5447L35.6021 69.8667L30.0433 69.8374L24.4944 69.808L24.0345 69.534C23.7311 69.3578 23.4766 69.1034 23.3005 68.8L23.0265 68.34L23.0069 63.6915C22.9873 59.9824 23.0069 58.9646 23.1145 58.6808Z" fill="white"/>
<path d="M43.1183 57.2324L48.5791 57.2324L49.0782 57.4771C49.3914 57.6337 49.6752 57.8783 49.8513 58.1328L50.1351 58.534L50.1645 64.2004L50.1841 69.8569L43.9208 69.8569L37.6574 69.8569L37.6574 63.5447L37.6574 57.2324L43.1183 57.2324Z" fill="white"/>
<path d="M43.9208 71.8145L50.1841 71.8145L50.1841 78.1267L50.1841 84.439L44.7232 84.439L39.2624 84.439L38.7633 84.1943C38.4501 84.0377 38.1663 83.7931 37.9902 83.5386L37.7064 83.1374L37.677 77.471L37.6574 71.8145L43.9208 71.8145Z" fill="white"/>
<path d="M57.7883 71.8321L63.347 71.8615L63.8069 72.1355C64.1103 72.3116 64.3648 72.5661 64.5409 72.8695L64.8149 73.3294L64.8149 78.1248L64.8149 82.9201L64.5703 83.3605C64.4333 83.5954 64.1299 83.9281 63.9048 84.0945L63.4742 84.3881L57.8568 84.4175L52.2394 84.437L52.2394 78.1248L52.2394 71.8027L57.7883 71.8321Z" fill="white"/>
</svg>
